<?xml version="1.0" encoding="utf-8"?>
<!-- Generator: Adobe Illustrator 19.2.0, SVG Export Plug-In . SVG Version: 6.00 Build 0)  -->
<svg version="1.1" xmlns="http://www.w3.org/2000/svg" xmlns:xlink="http://www.w3.org/1999/xlink" x="0px" y="0px"
	 viewBox="0 0 1024 233.1" enable-background="new 0 0 1024 233.1" xml:space="preserve" width="1024" height="233.1" preserveAspectRatio="none">
<g id="BG">
</g>
<g id="Coral">
</g>
<g id="Sand_BG">
	<path fill="#F9EBC1" d="M1024.1,4.9c-26.6,20.9-77.2,49.4-152.2,46.3C755.2,46.4,670.8,72.9,377.6,29C184.1,0.1,54.8,45.1,0,70.9
		v171.2h1024.1V4.9z"/>
	<circle fill="#D4C78E" cx="919.5" cy="58" r="1.6"/>
	<circle fill="#D4C78E" cx="950.6" cy="128.5" r="2.2"/>
	<circle fill="#D4C78E" cx="751.5" cy="151.8" r="1.4"/>
	<circle fill="#D4C78E" cx="638.4" cy="198.9" r="1.4"/>
	<circle fill="#D4C78E" cx="712.7" cy="148" r="1"/>
	<circle fill="#D4C78E" cx="628.2" cy="203.9" r="1"/>
	<circle fill="#D4C78E" cx="622.6" cy="133.3" r="1"/>
	<circle fill="#D4C78E" cx="591.7" cy="158.3" r="1"/>
	<ellipse transform="matrix(0.2112 -0.9774 0.9774 0.2112 73.476 406.5658)" fill="#D4C78E" cx="288.6" cy="157.8" rx="1" ry="1"/>
	<circle fill="#D4C78E" cx="369.6" cy="215" r="1.9"/>
	<circle fill="#D4C78E" cx="319.1" cy="140.3" r="1.2"/>
	<circle fill="#D4C78E" cx="662.7" cy="133.7" r="1"/>
	<circle fill="#D4C78E" cx="818" cy="158.9" r="1.4"/>
	<circle fill="#D4C78E" cx="668" cy="143.7" r="1.8"/>
	<ellipse fill="#D4C78E" cx="609.8" cy="153.7" rx="1.9" ry="1.6"/>
	<circle fill="#D4C78E" cx="531.2" cy="190.4" r="1"/>
	<circle fill="#D4C78E" cx="571.3" cy="190.8" r="1"/>
	<ellipse fill="#D4C78E" cx="518.4" cy="210.9" rx="1.9" ry="1.6"/>
	<ellipse fill="#D4C78E" cx="683.9" cy="132.4" rx="1.9" ry="1.6"/>
	<circle fill="#D4C78E" cx="704.1" cy="151" r="1.7"/>
	<circle fill="#D4C78E" cx="850.3" cy="200.4" r="1.7"/>
	<circle fill="#D4C78E" cx="979.5" cy="220" r="1.7"/>
	<circle fill="#D4C78E" cx="927.2" cy="60.4" r="1.2"/>
	<circle fill="#D4C78E" cx="1006.8" cy="30.1" r="1.2"/>
	<circle fill="#D4C78E" cx="878.9" cy="119.3" r="1.4"/>
	<circle fill="#D4C78E" cx="933.3" cy="185.8" r="1.4"/>
	<circle fill="#D4C78E" cx="766.5" cy="106.5" r="1.6"/>
	<circle fill="#D4C78E" cx="895.2" cy="148" r="1.6"/>
	<circle fill="#D4C78E" cx="819.9" cy="132.6" r="1"/>
	<circle fill="#D4C78E" cx="861.6" cy="207" r="1"/>
	<circle fill="#D4C78E" cx="969.5" cy="220" r="1"/>
	
		<ellipse transform="matrix(0.9907 -0.1359 0.1359 0.9907 -18.1719 110.8414)" fill="#D4C78E" cx="802.8" cy="188.5" rx="1.4" ry="1.4"/>
	
		<ellipse transform="matrix(0.9907 -0.1359 0.1359 0.9907 -19.0643 101.7792)" fill="#D4C78E" cx="736" cy="190.5" rx="1.4" ry="1.4"/>
	
		<ellipse transform="matrix(0.9907 -0.1359 0.1359 0.9907 -22.6296 102.2501)" fill="#D4C78E" cx="737.6" cy="216.9" rx="1" ry="1"/>
	<circle fill="#D4C78E" cx="431.5" cy="151.8" r="1.4"/>
	<circle fill="#D4C78E" cx="383.5" cy="195.5" r="1"/>
	<circle fill="#D4C78E" cx="498" cy="158.9" r="1.4"/>
	<circle fill="#D4C78E" cx="400.4" cy="199.4" r="1.7"/>
	<circle fill="#D4C78E" cx="558.9" cy="119.3" r="1.4"/>
	<circle fill="#D4C78E" cx="446.5" cy="106.5" r="1.6"/>
	<circle fill="#D4C78E" cx="499.9" cy="132.6" r="1"/>
	<circle fill="#D4C78E" cx="121.5" cy="141.8" r="1.4"/>
	<circle fill="#D4C78E" cx="88.1" cy="196.8" r="1.4"/>
	<circle fill="#D4C78E" cx="82.7" cy="138" r="1"/>
	<circle fill="#D4C78E" cx="74.7" cy="221.2" r="1"/>
	<circle fill="#D4C78E" cx="188" cy="148.9" r="1.4"/>
	<circle fill="#D4C78E" cx="320.2" cy="205.9" r="1.4"/>
	<circle fill="#D4C78E" cx="74.1" cy="141" r="1.7"/>
	<circle fill="#D4C78E" cx="52.1" cy="214.1" r="1.7"/>
	
		<ellipse transform="matrix(1 -9.977787e-03 9.977787e-03 1 -2.127 1.9971)" fill="#D4C78E" cx="199.1" cy="214.2" rx="1.4" ry="1.4"/>
	<ellipse transform="matrix(1 -9.977787e-03 9.977787e-03 1 -2.0264 2.3943)" fill="#D4C78E" cx="238.9" cy="204.3" rx="1" ry="1"/>
	
		<ellipse transform="matrix(1 -9.977787e-03 9.977787e-03 1 -1.9333 1.3428)" fill="#D4C78E" cx="133.6" cy="194.4" rx="1.4" ry="1.4"/>
	
		<ellipse transform="matrix(1 -9.977787e-03 9.977787e-03 1 -1.9957 2.4796)" fill="#D4C78E" cx="247.5" cy="201.2" rx="1.7" ry="1.7"/>
	<circle fill="#D4C78E" cx="248.9" cy="109.3" r="1.4"/>
	<circle fill="#D4C78E" cx="136.5" cy="96.5" r="1.6"/>
	<circle fill="#D4C78E" cx="189.9" cy="122.6" r="1"/>
</g>
<g id="Right_BG_Fish">
</g>
<g id="Left_BG_Fish">
</g>
<g id="Left_Orange_and_Purple_Fish">
</g>
<g id="Starfish">
</g>
<g id="White_Frame_Drop_Shadow">
</g>
<g id="White_Frame_BG">
</g>
<g id="Submit_Button_1_">
</g>
<g id="Left_Tool_Bar_Tab">
</g>
<g id="Right_Info_Tab">
</g>
<g id="Top_Tab">
</g>
<g id="Left_Tools">
</g>
<g id="Orange_Crab">
</g>
<g id="Anchor">
</g>
<g id="Treasure_Chest">
</g>
<g id="Keyboard">
</g>
<g id="Header">
</g>
<g id="Header_Buttons">
</g>
<g id="Progress_Indicator_1_">
</g>
<g id="Title">
</g>
<g id="Problem_Screen">
</g>
<g id="Teacher_Rating_Design">
</g>
<g id="Solution_Screen">
</g>
<g id="Isadora_Screenshot">
</g>
</svg>
