<?xml version="1.0" encoding="utf-8"?>
<!-- Generator: Adobe Illustrator 19.2.0, SVG Export Plug-In . SVG Version: 6.00 Build 0)  -->
<svg version="1.1" id="Layer_1" xmlns="http://www.w3.org/2000/svg" xmlns:xlink="http://www.w3.org/1999/xlink" x="0px" y="0px"
	 viewBox="0 0 446 258" enable-background="new 0 0 446 258" xml:space="preserve" width="446" height="258" preserveAspectRatio="none">
<g>
	<polygon fill="#519D44" points="1.5,1.7 18.1,172.4 10.2,256.3 301.8,244.5 442.9,256.3 429.1,99.8 444.5,1.7 180,18.5 	"/>
	<polygon fill="#FFFFFF" points="27.1,172.3 11.5,11.5 179.9,24.5 433.9,11.3 420.1,99.5 433,246.6 302,237.4 20.1,247 	"/>
	<path fill="#A2CE5A" d="M18.4,248.5l7.2-76.2L9.8,9.9L179.9,23L435.7,9.7l-14.1,89.9l13.1,148.6L302,238.9L18.4,248.5z M13.2,13.1
		l15.4,159.2l0,0.1l-6.8,72.9l280.3-9.5l129.4,9L418.6,99.5l13.6-86.6L179.9,26l-0.1,0L13.2,13.1z"/>
</g>
</svg>
