<svg xmlns="http://www.w3.org/2000/svg" viewBox="0 0 132.26 116.88" width="132.26" height="116.88" preserveAspectRatio="none"><defs><style>.cls-1{fill:#5579bc;}.cls-2{fill:#4d4d99;}</style></defs><title>Home_Map_Screen_new</title><g id="Layer_13" data-name="Layer 13"><path class="cls-1" d="M62.32,103.41s-51.61,26.85-22.55,0c0,0-32.55.7-37.66-12.06C-.83,84,8.93,75.93,29,86.1,29,86.1,4.11,58,9,36.1,11.94,23.25,35.56,15.48,50.46,68c0,0-9.22-53,10.6-65.23,7.69-4.75,31.47-6.94,17.83,64.81,0,0,20.5-29.15,42.23-16.48C131,56.91,125.46,68.3,96.4,82.25c0,0,25-5.1,31.94,1.44,6.18,5.88-2.26,22.9-37.09,15.87,0,0,14.35,8.14,9.46,12.87C98.05,115,83.62,115.16,62.32,103.41Z"/><path class="cls-2" d="M61.93,103.21s-2.74-50.47,5.2-92.36c0,0-6.89,77.67-4.24,92.46Z"/><path class="cls-2" d="M62.23,102.4s8-35.74,52-45.27c0,0-38,7.14-51.37,46.18Z"/><path class="cls-2" d="M62.66,102.06S86.06,81,123.79,88.4c0,0-37.3-5.74-61,14.5Z"/><path class="cls-2" d="M64.82,100.8s12.58-8,31.17,7.46c0,0-18-15-32.59-6.1Z"/><path class="cls-2" d="M62,102.7S32.45,77.88,19.34,38.26c0,0,15.49,37.93,42.59,63.15Z"/><path class="cls-2" d="M56.67,97s-27.1-2.58-45.17-9.63c0,0,8.93,7,46.36,10.92Z"/><path class="cls-2" d="M61.61,101.7s-14.4-.3-24.72,10c0,0,13.4-10.73,25.61-9.14Z"/><path class="cls-2" d="M61.72,76.85s-6.9-6.14-9.12-11a39.14,39.14,0,0,0,9.12,12.65Z"/><path class="cls-2" d="M62.18,76.62A61.22,61.22,0,0,0,73.61,66s-1.61,4.37-11,12Z"/><path class="cls-2" d="M62.22,60.54s-6.91-6.14-9.13-11a39.08,39.08,0,0,0,9.13,12.65Z"/><path class="cls-2" d="M62.68,60.31A61.32,61.32,0,0,0,74.1,49.65s-1.61,4.37-11,12Z"/><path class="cls-2" d="M63.37,42.74s-6.91-6.13-9.13-11a39.08,39.08,0,0,0,9.13,12.65Z"/><path class="cls-2" d="M63.83,42.51A61.08,61.08,0,0,0,75.25,31.86s-1.61,4.37-11,12Z"/><path class="cls-2" d="M65.13,24.88s-6.9-6.14-9.13-11a39.16,39.16,0,0,0,9.13,12.65Z"/><path class="cls-2" d="M65.59,24.65A61.16,61.16,0,0,0,77,14s-2,4.69-11.41,12.36Z"/><path class="cls-2" d="M100.56,61.49a27.11,27.11,0,0,1,5.26-7.66s-3.08,1.15-5.88,8Z"/><path class="cls-2" d="M100.93,61.59a27,27,0,0,0,8.86,2.78s-3.13,1-9.53-2.62Z"/><path class="cls-2" d="M92.18,65.65A27,27,0,0,1,97.44,58s-3.09,1.14-5.89,7.94Z"/><path class="cls-2" d="M92.54,65.75a27.13,27.13,0,0,0,8.87,2.78s-3.13,1-9.54-2.61Z"/><path class="cls-2" d="M81.56,74a33.72,33.72,0,0,1,4.6-10.66s-3.51,2.15-5.3,11.16Z"/><path class="cls-2" d="M82,74a33.81,33.81,0,0,0,11.54,1.26s-3.6,2-12.32-.9Z"/><path class="cls-2" d="M71.9,84.09a38,38,0,0,1,2.16-12.85s-3.25,3.28-2.79,13.58Z"/><path class="cls-2" d="M72.42,84a37.93,37.93,0,0,0,12.91-1.71s-3.39,3.13-13.67,2.31Z"/><path class="cls-2" d="M110,87a16.66,16.66,0,0,1,8.29-4.59s-4.82,1.6-7.63,4.77Z"/><path class="cls-2" d="M111,87.53a22.1,22.1,0,0,0,8.11,6.15s-6.64-2.37-9-6Z"/><path class="cls-2" d="M99.07,87.44a16.66,16.66,0,0,1,8.29-4.59s-4.81,1.6-7.62,4.77Z"/><path class="cls-2" d="M100.05,88a22.18,22.18,0,0,0,8.11,6.16s-6.64-2.37-9-6Z"/><path class="cls-2" d="M87.06,89.87a16.55,16.55,0,0,1,7-7,20,20,0,0,0-6.27,7Z"/><path class="cls-2" d="M88.15,90.25a23.13,23.13,0,0,0,9.5,5.13s-7.1-1.2-10.38-4.77Z"/><path class="cls-2" d="M89.59,103.84s-.13,4,1,6.24A11.24,11.24,0,0,1,89,103.53Z"/><path class="cls-2" d="M89.61,103.7a14.65,14.65,0,0,1,5.89,1.07s-3.35-2.32-6.74-1.34Z"/><path class="cls-2" d="M81.39,100.39s-.22,4.37,1.61,7.44c0,0-2.14-1.74-2.19-7.62Z"/><path class="cls-2" d="M81.36,100.27s3.7-2.33,7.28-2.23c0,0-2.56-1-7.72,1.81Z"/><path class="cls-2" d="M73.32,99s1,4.26,3.59,6.72c0,0-2.53-1.08-4.2-6.73Z"/><path class="cls-2" d="M73.25,99.13s2.92-3.26,6.38-4.16c0,0-2.74-.27-6.92,3.88Z"/><path class="cls-2" d="M23.37,48.25a27,27,0,0,1-8.08-4.6s1.4,3,8.42,5.2Z"/><path class="cls-2" d="M24,48.53A27,27,0,0,0,27.64,40s.67,3.22-3.6,9.21Z"/><path class="cls-2" d="M28.12,57.73a27.19,27.19,0,0,1-8.8-3s1.94,2.66,9.25,3.51Z"/><path class="cls-2" d="M28.57,57.78a27.12,27.12,0,0,0,3.69-8.53s.68,3.22-3.6,9.21Z"/><path class="cls-2" d="M34.91,69.92a33.94,33.94,0,0,1-10.12-5.69S26.56,68,35.34,70.67Z"/><path class="cls-2" d="M35.35,69.46a33.89,33.89,0,0,0,2.46-11.35s1.61,3.79-2.18,12.16Z"/><path class="cls-2" d="M43.66,81.81a38,38,0,0,1-12-5s2.47,3.9,12.61,5.75Z"/><path class="cls-2" d="M43.68,81.29a38,38,0,0,0,1.23-13s2.29,4-.81,13.84Z"/><path class="cls-2" d="M19.25,90.32a30.22,30.22,0,0,1-9.08,2s3,1.08,9.73-1.78Z"/><path class="cls-2" d="M19.05,90a22.28,22.28,0,0,0-4.42-7.16s2.94,1.2,5,7.45Z"/><path class="cls-2" d="M32.32,94a36.75,36.75,0,0,1-11.27,2.46s3.82,1.35,12.1-2.23Z"/><path class="cls-2" d="M32.76,94.25a29.42,29.42,0,0,0-6.9-8.2s3.9,1.07,7.7,8.47Z"/><path class="cls-2" d="M46.43,96.37a39.56,39.56,0,0,1-11.55,5.38s4.57.55,12.52-5.32Z"/><path class="cls-2" d="M46.05,96.05a35.8,35.8,0,0,0-9.14-8.29s4.54.73,10.07,8.5Z"/><path class="cls-2" d="M42.7,107.56s-4-.37-6.29.66A11.16,11.16,0,0,1,43,107Z"/><path class="cls-2" d="M42.49,107.72a14.67,14.67,0,0,1-3.16,5.08s3.38-2.26,3.72-5.77Z"/><path class="cls-2" d="M52.74,103.3s-3.91-2-7.46-1.55c0,0,2.46-1.25,7.86,1.09Z"/><path class="cls-2" d="M52.62,103.19s-1.58,4.08-4.5,6.14c0,0,2.66-.71,5.1-6.07Z"/></g></svg>