<svg xmlns="http://www.w3.org/2000/svg" viewBox="0 0 156.32 164.97" width="156.32" height="164.97" preserveAspectRatio="none"><defs><style>.cls-1{fill:#aa5e5a;}.cls-2{fill:#943847;}.cls-3{fill:#006c70;}.cls-4{fill:#094550;}</style></defs><title>Home_Map_Screen_new</title><g id="trees"><polygon class="cls-1" points="115.97 33.69 114.8 150.77 121.41 152.16 116.5 35.08 115.97 33.69"/><path class="cls-2" d="M115.78,53a36.88,36.88,0,0,0,1.69,4.83l-.23-5.71-1.42-4Z"/><path class="cls-2" d="M115.54,76.63s2.19,5,2.87,3.89l-.09-2.33-2.76-4.42Z"/><path class="cls-3" d="M115.78,22.12c-.44,6.44-1.72,14-8.45,23.85-3.11,4.52-5.92,10.25,2.85-.1,0,0-6.56,27.06,5.07,1.1,0,0,7.23,24.66,4.6-2.92,0,0,8.19,17.34,4.77,5.12,0,0,13.65,13.1,2.75-3.63-8.67-13.32-9.43-20.16-9.91-23.66S116.21,15.8,115.78,22.12Z"/><path class="cls-3" d="M113.84,62.83a26.83,26.83,0,0,1-12.38,10.38c-4,1.72-9.19,5.23,8.52,0,0,0-5.86,12.74,5.13-.28,0,0,5.31,13.41,3.85-1.46,0,0,16.88,13.76-.11-4.91C118.85,66.56,111.7,70,113.84,62.83Z"/><path class="cls-2" d="M117.77,90.56s-1.06,5.06-2.44,6.87l0-4.15,2.27-4.74,1.19,2,.09,2Z"/><path class="cls-3" d="M114.37,80.3a25.22,25.22,0,0,1-8.11,3.86c-4.47,1.13-1.28,1.58,3.84.2,0,0-2.64,2.72-12.31,6.46-3.72,1.43-3.7,3.25,6.66.15,0,0-8.53,9.81,9.49-1.28,0,0-3.85,16.93,3.63-.42,0,0,18.57,24.63,4.81-.54,0,0,22.62,14.78,7.57.75,0,0,17.11,4.69.86-3.74,0,0,7.62,1.09-2.66-1.72a31.12,31.12,0,0,1-8.38-3.11s2.39,4.73-2.09,2.17c0,0-6.08,5.12-3.63-.22C114.05,82.86,112.45,82.54,114.37,80.3Z"/><path class="cls-2" d="M115.17,114.28s1.62-.1,3.32-3.51l1.25,1.27-.09-2.81-1.21-1.3-3.27,3.87Z"/><path class="cls-3" d="M114.48,114.11a42.65,42.65,0,0,1-13,16.6c-2.81,2.12-12.92,10.56,3.6,1.17,0,0-32,28.17-3.44,11.15,0,0-31.11,28.45-.94,8.11,0,0-14.88,22.87,7.71,2.3,0,0-9.59,18.93,7.87,3.7,0,0,6.53,16.87,8.68-2,0,0,15.31,18.51,6.2-1.78,0,0,26.7,20.7,2.35-9.82,0,0,35.31,23.23,13.11,2.21,0,0,17.68,5-8.64-9-7-3.73-11.71-5.31-16.51-15,0,0,1.24,15.56-1.1,6.38,0,0-5.77,16.22-3.42-6,0,0-4.48,11.63-2.24-1.39C114.69,120.78,109.9,127.56,114.48,114.11Z"/><path class="cls-3" d="M119.63,97A26.83,26.83,0,0,0,132,107.38c4,1.72,9.19,5.23-8.53,0,0,0,5.87,14.18-5.12,1.16,0,0-8.42,11.19-3.85-2.9,0,0-16.89,13.76.11-4.91C114.62,100.73,121.77,104.15,119.63,97Z"/><path class="cls-4" d="M107.1,137.51s-10.26,11.19-.78,4.58c0,0-6.49,15.73,5.39.22,0,0,4.68,11.31,4.13.06,0,0,10.39,15,6.27,3.11,0,0,7.88,6.35,1.48-4.95,0,0,7.14,9.07,5.23,1.62,0,0,1.82,6.79-5.9-2.58,0,0,5.71,10.88-1.12,5.46,0,0,4.31,11.35-6.4-3.85,0,0,1.36,11.76-3.69.46,0,0-11.23,15.65-4.86-.06C106.85,141.58,98.42,147.8,107.1,137.51Z"/><polygon class="cls-1" points="71.63 52.96 70.81 130.66 75.45 131.59 72 53.88 71.63 52.96"/><path class="cls-2" d="M71.49,65.8A23.59,23.59,0,0,0,72.68,69l-.16-3.79-1-2.66Z"/><path class="cls-2" d="M71.33,81.46s1.53,3.33,2,2.58l-.06-1.54-1.94-2.94Z"/><path class="cls-3" d="M71.49,45.28c-.3,4.28-1.21,9.32-5.93,15.83-2.18,3-4.16,6.8,2-.06,0,0-4.61,18,3.56.73,0,0,5.08,16.36,3.23-1.94,0,0,5.75,11.5,3.35,3.39,0,0,9.59,8.7,1.93-2.41-6.08-8.83-6.62-13.37-7-15.7S71.8,41.09,71.49,45.28Z"/><path class="cls-3" d="M70.13,72.3a18.45,18.45,0,0,1-8.69,6.89c-2.83,1.14-6.46,3.47,6,0,0,0-4.12,8.45,3.6-.19,0,0,3.74,8.9,2.71-1,0,0,11.86,9.13-.08-3.26C73.65,74.78,68.63,77.05,70.13,72.3Z"/><path class="cls-2" d="M72.9,90.71s-.75,3.35-1.72,4.55l0-2.75,1.59-3.15.84,1.35L73.7,92Z"/><path class="cls-3" d="M70.51,83.9a18.06,18.06,0,0,1-5.7,2.56c-3.14.75-.9,1.05,2.7.13,0,0-1.86,1.81-8.65,4.29-2.61,1-2.6,2.15,4.67.1,0,0-6,6.51,6.68-.85,0,0-2.71,11.23,2.54-.28,0,0,13,16.34,3.38-.36,0,0,15.89,9.81,5.32.5,0,0,12,3.11.6-2.48,0,0,5.36.72-1.87-1.15a22.74,22.74,0,0,1-5.89-2.06s1.69,3.14-1.46,1.44c0,0-4.27,3.4-2.55-.14C70.28,85.6,69.16,85.38,70.51,83.9Z"/><path class="cls-2" d="M71.06,106.44s1.15-.06,2.34-2.33l.87.85-.06-1.87-.84-.86-2.31,2.57Z"/><path class="cls-3" d="M70.59,106.33a28.55,28.55,0,0,1-9.16,11c-2,1.41-9.06,7,2.54.78,0,0-22.5,18.69-2.42,7.4,0,0-21.85,18.88-.66,5.38,0,0-10.45,15.18,5.42,1.53,0,0-6.74,12.55,5.52,2.45,0,0,4.59,11.2,6.1-1.32,0,0,10.76,12.28,4.35-1.18,0,0,18.75,13.74,1.66-6.52,0,0,24.8,15.42,9.2,1.47,0,0,12.42,3.34-6.07-6-4.91-2.47-8.22-3.52-11.6-10,0,0,.88,10.32-.77,4.23,0,0-4,10.76-2.4-4,0,0-3.14,7.72-1.57-.92C70.73,110.76,67.36,115.26,70.59,106.33Z"/><path class="cls-3" d="M74.2,95a18.51,18.51,0,0,0,8.69,6.89c2.83,1.14,6.46,3.47-6,0,0,0,4.12,9.41-3.6.77,0,0-5.91,7.42-2.71-1.93,0,0-11.86,9.14.08-3.25C70.68,97.46,75.7,99.72,74.2,95Z"/><path class="cls-4" d="M65.4,121.86s-7.21,7.43-.55,3c0,0-4.56,10.44,3.79.15,0,0,3.28,7.5,2.89,0,0,0,7.31,9.94,4.41,2.06,0,0,5.54,4.21,1-3.29,0,0,5,6,3.67,1.08,0,0,1.28,4.51-4.14-1.71,0,0,4,7.22-.78,3.62,0,0,3,7.54-4.5-2.55,0,0,1,7.8-2.59.3,0,0-7.89,10.39-3.42,0C65.22,124.56,59.3,128.69,65.4,121.86Z"/><polygon class="cls-1" points="50.99 42.61 50.11 130.54 55.08 131.58 51.4 43.65 50.99 42.61"/><path class="cls-2" d="M50.85,57.13a27.62,27.62,0,0,0,1.27,3.63L52,56.47l-1.07-3Z"/><path class="cls-2" d="M50.67,74.86s1.65,3.76,2.16,2.91L52.76,76l-2.07-3.32Z"/><path class="cls-3" d="M50.85,33.92A33.24,33.24,0,0,1,44.5,51.83c-2.33,3.39-4.44,7.69,2.14-.08,0,0-4.92,20.32,3.82.83,0,0,5.43,18.52,3.45-2.19,0,0,6.15,13,3.58,3.84,0,0,10.25,9.84,2.06-2.73-6.51-10-7.08-15.14-7.44-17.76S51.17,29.17,50.85,33.92Z"/><path class="cls-3" d="M49.39,64.49a20.15,20.15,0,0,1-9.29,7.8c-3,1.29-6.91,3.93,6.4,0,0,0-4.41,9.56,3.85-.22,0,0,4,10.07,2.89-1.09,0,0,12.68,10.34-.08-3.69C53.16,67.29,47.79,69.86,49.39,64.49Z"/><path class="cls-2" d="M52.35,85.32s-.8,3.8-1.83,5.15l0-3.11,1.71-3.56.89,1.52.07,1.51Z"/><path class="cls-3" d="M49.79,77.61a18.8,18.8,0,0,1-6.09,2.9c-3.36.85-1,1.19,2.89.15,0,0-2,2-9.25,4.85-2.79,1.08-2.78,2.44,5,.12,0,0-6.4,7.36,7.13-1,0,0-2.89,12.72,2.73-.32,0,0,13.94,18.5,3.61-.4,0,0,17,11.1,5.69.56,0,0,12.84,3.53.64-2.8,0,0,5.72.82-2-1.3a23.08,23.08,0,0,1-6.29-2.33s1.8,3.55-1.57,1.63c0,0-4.57,3.84-2.73-.17C49.55,79.53,48.35,79.29,49.79,77.61Z"/><path class="cls-2" d="M50.39,103.13s1.22-.08,2.49-2.64l.94,1-.07-2.11-.9-1-2.46,2.9Z"/><path class="cls-3" d="M49.88,103a32.12,32.12,0,0,1-9.78,12.47c-2.11,1.59-9.7,7.93,2.7.88,0,0-24,21.16-2.58,8.37,0,0-23.36,21.37-.71,6.09,0,0-11.17,17.18,5.79,1.73,0,0-7.2,14.21,5.91,2.77,0,0,4.91,12.68,6.52-1.49,0,0,11.5,13.9,4.66-1.33,0,0,20,15.54,1.76-7.38,0,0,26.52,17.45,9.85,1.66,0,0,13.28,3.79-6.49-6.74-5.26-2.8-8.8-4-12.4-11.28,0,0,.93,11.69-.83,4.79,0,0-4.33,12.19-2.56-4.49,0,0-3.37,8.74-1.69-1C50,108,46.43,113.1,49.88,103Z"/><path class="cls-3" d="M53.74,90.15A20.21,20.21,0,0,0,63,98c3,1.29,6.9,3.93-6.4,0,0,0,4.41,10.65-3.85.87,0,0-6.32,8.4-2.89-2.18,0,0-12.68,10.34.08-3.68C50,93,55.35,95.52,53.74,90.15Z"/><path class="cls-4" d="M44.33,120.58s-7.7,8.4-.58,3.43c0,0-4.87,11.82,4,.17,0,0,3.51,8.49,3.09,0,0,0,7.81,11.24,4.72,2.33,0,0,5.92,4.77,1.11-3.72,0,0,5.36,6.82,3.92,1.22,0,0,1.37,5.1-4.42-1.94,0,0,4.29,8.17-.84,4.1,0,0,3.23,8.53-4.81-2.89,0,0,1,8.83-2.77.34,0,0-8.44,11.76-3.65,0C44.15,123.63,37.81,128.3,44.33,120.58Z"/><polygon class="cls-1" points="26.45 17.84 25.42 120.23 31.21 121.44 26.91 19.06 26.45 17.84"/><path class="cls-2" d="M26.28,34.75A32.41,32.41,0,0,0,27.75,39l-.2-5-1.24-3.5Z"/><path class="cls-2" d="M26.07,55.39s1.91,4.39,2.51,3.4l-.08-2-2.41-3.87Z"/><path class="cls-3" d="M26.28,7.72C25.9,13.36,24.77,20,18.89,28.58c-2.71,4-5.17,9,2.49-.09,0,0-5.74,23.66,4.44,1,0,0,6.32,21.56,4-2.56,0,0,7.16,15.16,4.17,4.48,0,0,11.93,11.46,2.4-3.18-7.58-11.64-8.24-17.63-8.67-20.68S26.66,2.2,26.28,7.72Z"/><path class="cls-3" d="M24.58,43.32A23.44,23.44,0,0,1,13.76,52.4c-3.53,1.5-8,4.58,7.45,0,0,0-5.13,11.14,4.48-.25,0,0,4.65,11.73,3.37-1.27,0,0,14.76,12-.09-4.29C29,46.59,22.71,49.58,24.58,43.32Z"/><path class="cls-2" d="M28,67.57s-.93,4.43-2.13,6l0-3.63,2-4.14,1,1.76L29,69.34Z"/><path class="cls-3" d="M25.05,58.6A22.21,22.21,0,0,1,18,62c-3.92,1-1.12,1.38,3.35.17,0,0-2.31,2.38-10.76,5.65-3.26,1.25-3.23,2.84,5.82.13,0,0-7.46,8.58,8.3-1.12,0,0-3.36,14.81,3.18-.37,0,0,16.24,21.54,4.2-.47,0,0,19.78,12.92,6.62.66,0,0,15,4.1.75-3.27,0,0,6.67,1-2.33-1.51a26.87,26.87,0,0,1-7.32-2.72s2.09,4.14-1.83,1.9c0,0-5.32,4.48-3.17-.19C24.77,60.84,23.37,60.56,25.05,58.6Z"/><path class="cls-2" d="M25.74,88.31s1.42-.08,2.91-3.07l1.09,1.12-.08-2.46-1.05-1.14-2.87,3.38Z"/><path class="cls-3" d="M25.15,88.17a37.36,37.36,0,0,1-11.4,14.51c-2.45,1.86-11.29,9.24,3.16,1,0,0-28,24.63-3,9.75,0,0-27.2,24.88-.82,7.08,0,0-13,20,6.74,2,0,0-8.39,16.55,6.88,3.23,0,0,5.71,14.76,7.59-1.74,0,0,13.39,16.19,5.42-1.55,0,0,23.35,18.1,2.06-8.59,0,0,30.88,20.32,11.46,1.93,0,0,15.46,4.41-7.55-7.84-6.13-3.26-10.25-4.64-14.45-13.14,0,0,1.1,13.61-1,5.58,0,0-5,14.19-3-5.23,0,0-3.92,10.18-2-1.21C25.33,94,21.13,99.93,25.15,88.17Z"/><path class="cls-3" d="M29.65,73.2a23.44,23.44,0,0,0,10.82,9.08c3.53,1.5,8,4.58-7.45,0,0,0,5.13,12.4-4.48,1,0,0-7.36,9.78-3.37-2.54,0,0-14.77,12,.09-4.29C25.26,76.47,31.51,79.45,29.65,73.2Z"/><path class="cls-4" d="M18.69,108.63s-9,9.78-.68,4c0,0-5.67,13.76,4.71.2,0,0,4.09,9.88,3.61,0,0,0,9.09,13.09,5.49,2.72,0,0,6.89,5.55,1.29-4.34,0,0,6.24,7.94,4.57,1.42,0,0,1.59,5.94-5.15-2.25,0,0,5,9.51-1,4.77,0,0,3.76,9.93-5.6-3.36,0,0,1.19,10.28-3.23.4,0,0-9.82,13.69-4.25,0C18.47,112.19,11.1,117.62,18.69,108.63Z"/><polygon class="cls-1" points="86.38 18.56 85.07 148.57 92.42 150.11 86.97 20.11 86.38 18.56"/><path class="cls-2" d="M86.16,40A41.87,41.87,0,0,0,88,45.4l-.25-6.34L86.2,34.61Z"/><path class="cls-2" d="M85.89,66.25s2.44,5.57,3.19,4.31L89,68l-3.07-4.91Z"/><path class="cls-3" d="M86.16,5.72c-.49,7.15-1.91,15.57-9.38,26.47-3.45,5-6.57,11.38,3.16-.1,0,0-7.28,30,5.64,1.22,0,0,8,27.39,5.1-3.24,0,0,9.09,19.25,5.3,5.68,0,0,15.15,14.55,3-4C89.41,16.93,88.56,9.33,88,5.45S86.64-1.3,86.16,5.72Z"/><path class="cls-3" d="M84,50.92A29.81,29.81,0,0,1,70.26,62.45c-4.47,1.9-10.2,5.81,9.47,0,0,0-6.52,14.14,5.69-.32,0,0,5.9,14.89,4.27-1.61,0,0,18.75,15.28-.11-5.45C89.58,55.07,81.63,58.86,84,50.92Z"/><path class="cls-2" d="M88.38,81.71s-1.18,5.62-2.71,7.63l0-4.61,2.52-5.26,1.32,2.24.1,2.24Z"/><path class="cls-3" d="M84.6,70.32a28,28,0,0,1-9,4.29c-5,1.25-1.42,1.75,4.27.21,0,0-2.94,3-13.68,7.18-4.13,1.59-4.1,3.61,7.4.17,0,0-9.47,10.89,10.55-1.42,0,0-4.28,18.79,4-.48,0,0,20.62,27.36,5.34-.59,0,0,25.12,16.41,8.41.83,0,0,19,5.21.95-4.15,0,0,8.47,1.21-3-1.91A34.54,34.54,0,0,1,90.59,71s2.66,5.25-2.32,2.41c0,0-6.75,5.69-4-.24C84.24,73.16,82.47,72.81,84.6,70.32Z"/><path class="cls-2" d="M85.48,108s1.81-.1,3.69-3.89l1.39,1.41-.1-3.12L89.12,101l-3.64,4.29Z"/><path class="cls-3" d="M84.73,107.86a47.45,47.45,0,0,1-14.47,18.43c-3.12,2.36-14.34,11.73,4,1.3,0,0-35.56,31.29-3.82,12.39,0,0-34.54,31.59-1,9,0,0-16.52,25.4,8.56,2.56,0,0-10.65,21,8.74,4.1,0,0,7.25,18.74,9.63-2.21,0,0,17,20.55,6.89-2,0,0,29.64,23,2.61-10.91,0,0,39.21,25.8,14.56,2.45,0,0,19.63,5.6-9.6-10-7.77-4.13-13-5.89-18.33-16.67,0,0,1.38,17.27-1.23,7.08,0,0-6.4,18-3.79-6.64,0,0-5,12.92-2.49-1.54C85,115.27,79.63,122.8,84.73,107.86Z"/><path class="cls-3" d="M90.44,88.86a29.82,29.82,0,0,0,13.74,11.53c4.48,1.91,10.21,5.81-9.46,0,0,0,6.52,15.75-5.69,1.29,0,0-9.35,12.42-4.28-3.22,0,0-18.75,15.28.12-5.45C84.87,93,92.81,96.8,90.44,88.86Z"/><path class="cls-4" d="M76.52,133.85s-11.38,12.42-.86,5.08c0,0-7.2,17.46,6,.25,0,0,5.19,12.55,4.57.06,0,0,11.55,16.63,7,3.45,0,0,8.76,7.05,1.65-5.5,0,0,7.92,10.08,5.8,1.8,0,0,2,7.54-6.54-2.86,0,0,6.34,12.08-1.25,6.06,0,0,4.79,12.61-7.1-4.27,0,0,1.5,13.05-4.1.51,0,0-12.48,17.38-5.4-.07C76.25,138.36,66.89,145.27,76.52,133.85Z"/></g></svg>