<svg xmlns="http://www.w3.org/2000/svg" viewBox="0 0 228.59 161.06" width="228.59" height="161.06" preserveAspectRatio="none"><defs><style>.cls-1{fill:#bc5f42;}.cls-2{fill:#92494f;}.cls-3{fill:#15793b;}.cls-4{fill:#09463d;}.cls-5{fill:#129641;}.cls-6{fill:#155b3b;}.cls-7{fill:#ffe500;}.cls-8{fill:#ff9023;}</style></defs><title>FG tree</title><g id="FG_trees_and_bushes" data-name="FG trees and bushes"><path class="cls-1" d="M97.64,87.14s-2.3,38.19-23.06-1.83L71,90.92s9.26,12.81,13,16.46c0,0-20,3.64-22.42-10.18l-4,2.47S61,109.73,79,112.88c9.33,1.63,20-6.1,24.91-3.94,9.82,4.29,12.61,20.62,8.93,24.7-2.32,2.57-5.19,5.31-5.5,8.5,0,0,3.56-1.52,13.6-.2a19.46,19.46,0,0,0,13.26-1s1.68-9.37-12-18.71c-6-4.11-5.32-15.4,4.23-15.65s21.2,2.58,23.41-15.31l-5.22,2.39s-1.92,12.24-11.69,10.6c-2.82-.48-1.89-4.91,3.64-13.53l-7.24-1s-1.53,11.49-10.22,13.46-17.37.25-11-14.95Z"/><path class="cls-2" d="M65,103.69a9.58,9.58,0,0,1-1.68,2.92l-1.64-1.35L63.52,102S64.22,102.87,65,103.69Z"/><path class="cls-2" d="M75.21,96.5s1.62-.7.89-4.84a4.46,4.46,0,0,0,2.49.79l-1.73-3.09-2-1.35-1.17,1.65-.35,4.48Z"/><path class="cls-2" d="M142.68,99S146,100.2,148,93.76a13.28,13.28,0,0,0,1.19.92s.52-2.46.65-3.78h-2.47l-3.62,5.83S143.05,98.29,142.68,99Z"/><path class="cls-2" d="M107.93,87.25,98.16,86s-1.41,7.6-1.76,9.11a9.66,9.66,0,0,0,9.63-.22C106.09,93.17,107.36,90.78,107.93,87.25Z"/><path class="cls-2" d="M126.19,97.85s3.35,2.54,4.81-4.81A21.13,21.13,0,0,0,133.43,96s1.33-2.37,1.6-2.64l-5.25-3.22-2.14,5.18A26,26,0,0,1,126.19,97.85Z"/><path class="cls-3" d="M28.1,64.59S10.79,59.93,14.64,79.51c0,0-12.34,6.57-4.41,12.18,0,0-6.91,8.9,3.73,11.23,0,0-1.58,10.81,20.59,1.5,0,0,.34,9.86,16.86.14,0,0,6.79,13.14,14.26-5.61,0,0,9.84,1.09,8.83-9.72,0,0,9.27,7.53,15.61-5.07,0,0,6.45,14.92,19,5.21,0,0,3.06,13.82,12.45,2.32,0,0,7.92,12.32,8.48-.82,0,0,13.47,15.33,17.88,1.1,0,0,9.85,6.57,9-.41,0,0,11.21,18.34,16.52,7.11,0,0,27.16,13.15,23.88-11.08,0,0,17-14.93-7.47-20.54,0,0,5.55-9-11.54-15.74,0,0,10.52-16-17.65-9.72,0,0,2.83-30.8-27.72-20.81,0,0-3.85-9.58-12.34-4.93,0,0-12.22-22.86-29.64-4.24,0,0-12.34-6-11.32,9.44,0,0-13.79-8.62-23.85-2.73-8.67,5.08-13,16.83-9.53,24.36C46.32,42.68,19.39,45.15,28.1,64.59Z"/><path class="cls-4" d="M87.61,41.81s-3.84-11.34-11.85-.31c0,0-15.59-17.94-19.94,7.52,0,0-9.28-3.3-5.11,10.42,0,0-12.87-5.36-9,7.93,0,0-2.47-11.34,10.23-7.11,0,0-4.35-13.2,4.86-10.31,0,0-.43-23.5,19.34-7C76.19,42.94,80.79,31.81,87.61,41.81Z"/><path class="cls-4" d="M105,63.86s2.92-11,12.15-4.11c0,0,4.84-24.4,20.52-5.82,0,0,10.58-9.61,8.88,9.64,0,0,5.71-13.52,10.08-4.41,0,0,5.11-5.58,8.75,5.88,0,0-5.22-10.43-8.87-4.11,0,0-3.4-10.29-10.2,4.85,0,0,1.26-20.39-8.79-10.52,0,0-13.19-21.06-20,6.4C117.56,61.66,110.75,52.84,105,63.86Z"/><path class="cls-2" d="M119.2,121.33s-3,5.31-2.8,9,1.81,6.47-.16,11.17l1.54.15s.39-7.17-.38-11C116.68,127,116.64,127.77,119.2,121.33Z"/><path class="cls-2" d="M128.16,129.65a4.19,4.19,0,0,0-4.18,2.18s.3,1-.74,3.8c0,0-3.27,1.32-3.75,6.16l1.38.17s-1.43-2.67,2.37-5.51c0,0,1.44-3.22,1.39-4.53A4,4,0,0,1,128.16,129.65Z"/><path class="cls-5" d="M69.93,45.52c-1.32,1.7-.93,4.67-.93,4.67a4.72,4.72,0,0,0,3.83-1.45c1.31-1.69.93-4.66.93-4.66S71.24,43.84,69.93,45.52Z"/><path class="cls-5" d="M64.76,49a3.21,3.21,0,0,0,2.43,1.28,4.93,4.93,0,0,0-.33-3.14,3.24,3.24,0,0,0-2.43-1.28A4.93,4.93,0,0,0,64.76,49Z"/><path class="cls-6" d="M155,78.37a4.61,4.61,0,0,1-3.57,1.71s-.55-2.82.61-4.54a4.64,4.64,0,0,1,3.57-1.71S156.16,76.64,155,78.37Z"/><path class="cls-6" d="M150.39,76.21a4.53,4.53,0,0,1-.93,2.84,3.85,3.85,0,0,1-1.51-2.4,4.52,4.52,0,0,1,.93-2.83A3.85,3.85,0,0,1,150.39,76.21Z"/><path class="cls-6" d="M38.74,89.08c1.09,1.79.47,4.62.47,4.62a4.52,4.52,0,0,1-3.47-1.86c-1.09-1.79-.47-4.62-.47-4.62A4.57,4.57,0,0,1,38.74,89.08Z"/><path class="cls-6" d="M35.86,93.94c1.19.18,2,1.81,2,1.81s-1.11,1.35-2.3,1.17-2-1.81-2-1.81S34.66,93.77,35.86,93.94Z"/><path class="cls-6" d="M42.73,90.07a6,6,0,0,1-1.32,3.57,6.11,6.11,0,0,1-1.5-3.53,6,6,0,0,1,1.32-3.57A6.11,6.11,0,0,1,42.73,90.07Z"/><path class="cls-5" d="M148.44,32.32c-1.31,1.69-.93,4.67-.93,4.67s2.52.24,3.83-1.45.93-4.67.93-4.67A4.72,4.72,0,0,0,148.44,32.32Z"/><path class="cls-5" d="M143.28,35.78a3.21,3.21,0,0,0,2.42,1.29,5,5,0,0,0-.33-3.15,3.24,3.24,0,0,0-2.43-1.28A5,5,0,0,0,143.28,35.78Z"/><path class="cls-6" d="M188.54,84.87a7.14,7.14,0,0,1-.92,4.51,5.45,5.45,0,0,1-2.7-3.24,7.14,7.14,0,0,1,.93-4.51A5.52,5.52,0,0,1,188.54,84.87Z"/><path class="cls-5" d="M95,18.35c-.75,2.14.47,4.77.47,4.77a5.53,5.53,0,0,0,3.17-3c.75-2.13-.47-4.76-.47-4.76A5.53,5.53,0,0,0,95,18.35Z"/><path class="cls-5" d="M90.77,23.87a3.71,3.71,0,0,0,2.58,1.9,5.68,5.68,0,0,0,.29-3.68,3.71,3.71,0,0,0-2.58-1.9A5.68,5.68,0,0,0,90.77,23.87Z"/><path class="cls-7" d="M174.43,146.87s-37.72,19.63-16.48,0c0,0-23.79.52-27.52-8.81-2.15-5.37,5-11.27,19.62-3.83,0,0-18.16-20.52-14.56-36.54,2.12-9.4,19.38-15.07,30.27,23.33,0,0-6.74-38.69,7.75-47.66,5.61-3.48,23-5.07,13,47.36,0,0,15-21.31,30.86-12,7.23,4.21,3.17,12.54-18.07,22.73,0,0,18.3-3.73,23.34,1.06,4.52,4.29-1.65,16.73-27.1,11.59,0,0,10.49,5.95,6.92,9.41C200.54,155.35,190,155.46,174.43,146.87Z"/><path class="cls-8" d="M210.7,113.46l1.68-.41S211.76,113.17,210.7,113.46Z"/><path class="cls-8" d="M198.81,150.24l.22.18Z"/><path class="cls-8" d="M210.05,135.36a64.59,64.59,0,0,1,9.3.55,59.78,59.78,0,0,0-9.4-1.11,15.05,15.05,0,0,1,5.37-3.28,12.41,12.41,0,0,0-6,3.25,57.64,57.64,0,0,0-7.3.26,15.32,15.32,0,0,1,5.28-3.18,12.27,12.27,0,0,0-6,3.25,54.15,54.15,0,0,0-8.17,1.55,15,15,0,0,1,4.39-4.77,12.11,12.11,0,0,0-5,4.94,50.47,50.47,0,0,0-17.18,8.46,51.17,51.17,0,0,1,6.47-12.11c7,.42,9.37-1.73,9.37-1.73a28.91,28.91,0,0,1-9,1.27,50.87,50.87,0,0,1,6.29-7c6.19,2,8.75.58,8.75.58a25,25,0,0,1-8.39-.91,52.51,52.51,0,0,1,7.61-5.7c4.37,2.34,6.51,1.67,6.51,1.67a20.72,20.72,0,0,1-6.18-1.88,56.91,56.91,0,0,1,5.55-3c4.53,2.51,6.76,1.8,6.76,1.8a20.37,20.37,0,0,1-6.38-2,51.41,51.41,0,0,1,8-2.91,58.89,58.89,0,0,0-8.26,2.64,20.24,20.24,0,0,1,3.78-5.46s-2.2.83-4.23,5.64a51.28,51.28,0,0,0-5.61,2.72,20.56,20.56,0,0,1,3.71-5.31s-2.19.82-4.21,5.6a48.53,48.53,0,0,0-7.1,5,26.78,26.78,0,0,1,3.07-6.66s-2.3,1.42-3.65,7.16a46.61,46.61,0,0,0-6.78,7.29,29.7,29.7,0,0,1,1.59-8.67s-2.24,2.27-2.06,9.31a43.38,43.38,0,0,0-6.32,12.46,154,154,0,0,1,0-16.85c6.87-5.6,8.05-8.79,8.05-8.79a44.19,44.19,0,0,1-8,7.54c.14-3.47.33-7.15.54-10.87,6.66-5.47,7.82-8.59,7.82-8.59a43.61,43.61,0,0,1-7.74,7.35c.23-4,.5-8,.76-11.76,6.66-5.47,7.82-8.59,7.82-8.59a43.55,43.55,0,0,1-7.73,7.34c.3-4.21.6-8.14.87-11.51,6.73-5.52,8.15-8.88,8.15-8.88a44.14,44.14,0,0,1-8,7.57c.48-6,.82-9.87.82-9.87-.63,3.32-1.16,6.71-1.61,10.11-.84-.76-5.06-4.7-6.52-7.87a28.82,28.82,0,0,0,6.37,9c-.51,4-.92,8-1.25,11.88-1-1-5-4.73-6.41-7.78a28.82,28.82,0,0,0,6.32,8.91c-.32,4.09-.55,8.09-.7,11.91-1-.9-5-4.73-6.46-7.82a28.7,28.7,0,0,0,6.41,9c-.15,3.83-.23,7.46-.26,10.79-.86-.78-5.05-4.7-6.51-7.86a28.57,28.57,0,0,0,6.5,9.08c-.06,8.09.15,14.22.26,16.82a108.7,108.7,0,0,1-12.82-14.49c2-6.83.44-9.63.44-9.63a28.87,28.87,0,0,1-.8,9.16c-2.08-2.81-4-5.61-5.72-8.33,2.42-5.7,1.34-8.29,1.34-8.29a26.08,26.08,0,0,1-1.62,7.85c-1.78-2.81-3.38-5.52-4.78-8,2.79-4.1,2.34-6.3,2.34-6.3a20.56,20.56,0,0,1-2.52,6c-1.28-2.3-2.38-4.4-3.31-6.26,2.92-4.21,2.45-6.47,2.45-6.47a20.37,20.37,0,0,1-2.62,6.13c-2.26-4.52-3.44-7.41-3.44-7.41.82,2.5,1.74,4.9,2.72,7.23a20.57,20.57,0,0,1-5.68-3.29s1,2.09,5.86,3.71c1,2.25,2,4.42,3.06,6.52a21.53,21.53,0,0,1-6-2.11s1.32,1.79,6.16,2.48c1.55,3,3.19,5.84,4.87,8.48a25.83,25.83,0,0,1-7-4s1.26,2.62,7.39,4.6c1.89,3,3.81,5.65,5.67,8.09a29.6,29.6,0,0,1-8.07-3.47s1.7,2.66,8.53,4.06a119.62,119.62,0,0,0,9.27,10.65c-1-.11-3.52-.39-6.84-.88-3.92-5.33-7.1-5.86-7.1-5.86a27.54,27.54,0,0,1,6.46,5.77c-2.73-.41-6-.95-9.35-1.65-2.62-4.66-5.17-5.36-5.17-5.36a24,24,0,0,1,4.61,5.25c-3-.63-6.19-1.39-9.21-2.28-1.52-4.43-3.62-5.29-3.62-5.29a16.37,16.37,0,0,1,3.22,5.18c-1.91-.57-3.76-1.19-5.5-1.87a20.66,20.66,0,0,0,5.07,2.35,23.35,23.35,0,0,1-6,1.22s2,.72,6.49-1.06a77.58,77.58,0,0,0,9.15,2.5,29.27,29.27,0,0,1-7.7,1.59s2.66.92,8.37-1.44c2.76.59,6,1.17,9.72,1.72a31.12,31.12,0,0,1-8,3.6s3.15.37,8.62-3.51q3.56.51,7.75,1c1.15,1.14,2,2,2.66,2.52a27.76,27.76,0,0,0-5.69.83c-3.94-1.71-5.73-.8-5.73-.8a10.86,10.86,0,0,1,5.09,1,27.13,27.13,0,0,0-6.79,2.86,8.21,8.21,0,0,0-4.79.9,10.47,10.47,0,0,1,4.2-.51,23.45,23.45,0,0,0-3.85,3.07,38.11,38.11,0,0,1,4-2.66,10.6,10.6,0,0,1-2.22,3.44,6.86,6.86,0,0,0,2.62-3.67,33.49,33.49,0,0,1,7-3,10.66,10.66,0,0,1-3.15,4.17s1.91-.51,3.68-4.33a18.22,18.22,0,0,1,6.36-.63l0,0c0,.3,0,.46,0,.46l.71.07c.06-.18.13-.34.19-.51.3-.25.6-.5.91-.74a14.1,14.1,0,0,1,6.15-1.64c1.22,3.9,3,4.67,3,4.67a10.89,10.89,0,0,1-2.57-4.69,19.62,19.62,0,0,1,5.43.75c.05,4.21,1.59,5.47,1.59,5.47a11.15,11.15,0,0,1-1.18-5.36,29.25,29.25,0,0,1,5.58,2.34,8.21,8.21,0,0,0,1.17,4.66,11.13,11.13,0,0,1-.75-4.44,35.65,35.65,0,0,1,4.45,2.93,37.07,37.07,0,0,0-4.41-3.15,10.57,10.57,0,0,1,4.27.78,6.7,6.7,0,0,0-4.67-1,26.11,26.11,0,0,0-5.36-2.44,10.7,10.7,0,0,1,5-1.46s-1.85-.73-5.58,1.29a19.06,19.06,0,0,0-5.38-.79,10.67,10.67,0,0,1,4.38-2.74s-2-.19-5,2.76a14.37,14.37,0,0,0-4.55.89,47,47,0,0,1,15.11-6.84c2.4,2.61,7.59,3.48,7.59,3.48a17.07,17.07,0,0,1-6.86-3.66,63.46,63.46,0,0,1,8.07-1.46c1.85,2.56,6.47,4.21,6.47,4.21a16.69,16.69,0,0,1-5.77-4.29c2.57-.28,5-.4,7.14-.43,1.76,2.67,6.61,4.39,6.61,4.39A16.35,16.35,0,0,1,210.05,135.36Z"/></g></svg>