<?xml version="1.0" encoding="utf-8"?>
<!-- Generator: Adobe Illustrator 19.2.0, SVG Export Plug-In . SVG Version: 6.00 Build 0)  -->
<!DOCTYPE svg PUBLIC "-//W3C//DTD SVG 1.1//EN" "http://www.w3.org/Graphics/SVG/1.1/DTD/svg11.dtd">
<svg version="1.1" xmlns="http://www.w3.org/2000/svg" xmlns:xlink="http://www.w3.org/1999/xlink" x="0px" y="0px"
	 viewBox="0 0 280 240" enable-background="new 0 0 280 240" xml:space="preserve" width="280" height="240" preserveAspectRatio="none">
<g id="BG">
</g>
<g id="Coral">
</g>
<g id="Sand_BG">
</g>
<g id="Right_BG_Fish">
</g>
<g id="Left_BG_Fish">
</g>
<g id="Left_Orange_and_Purple_Fish">
</g>
<g id="Starfish">
</g>
<g id="White_Frame_Drop_Shadow">
</g>
<g id="White_Frame_BG">
</g>
<g id="Submit_Button_1_">
</g>
<g id="Left_Tool_Bar_Tab">
</g>
<g id="Right_Info_Tab">
</g>
<g id="Top_Tab">
</g>
<g id="Left_Tools">
	<path display="none" fill="#355A88" d="M223.8,23.6c-11.6,0-20.4,9.6-20.4,21.3s8.6,20.5,20.2,21.3c13.7,0.9,22-10,22-21.7
		S235.4,23.6,223.8,23.6z M223.9,29.4c2.8,0,5.4,0.9,7.6,2.3l-8,9.5l-7.8-9.1C218,30.4,220.8,29.4,223.9,29.4z M211.2,37.5l8.8,7.8
		l-7.1,8.4c-2-2.5-3.3-5.7-3.3-9.3C209.6,41.8,210.2,39.5,211.2,37.5z M224.1,59.3c-3.1-0.2-6-1.3-8.3-3l7.9-7.8l9.1,8.1
		C230.3,58.5,227.3,59.5,224.1,59.3z M235,54.5l-8-9.3l9.1-8.9c1.6,2.4,2.5,5.3,2.5,8.4C238.7,48.4,237.3,51.9,235,54.5z"/>
</g>
<g id="Orange_Crab">
</g>
<g id="Anchor">
</g>
<g id="Treasure_Chest">
	<g>
		<path fill="#007444" d="M167.4,159.2c2.8-1.3,7-0.8,7-0.8c0,0-2.7,1-5.5,2.6c-2.8,1.7-4.9,3.3-4.9,2.2
			C163.9,162.2,164.6,160.5,167.4,159.2z"/>
		<path fill="#007444" d="M166.4,148c2.6-1.3,6.7-0.8,6.7-0.8c0,0-2.5,1-5.1,2.6c-2.6,1.7-4.4,3.3-4.5,2.2
			C163.2,151.1,163.7,149.4,166.4,148z"/>
		<path fill="#007444" d="M163.5,139c-0.2-0.8,0.1-2.2,2.1-3.2c2-1.1,5-0.6,5-0.6c0,0-1.9,0.8-3.8,2.1
			C165,138.5,163.7,139.8,163.5,139z"/>
		<path fill="#007444" d="M163.1,126.5c2.5-1.4,6.2-0.8,6.2-0.8c0,0-2.4,1-4.8,2.7c-2.4,1.7-4,3.3-4.2,2.3
			C160.1,129.5,160.6,127.9,163.1,126.5z"/>
		<path fill="#007444" d="M168.4,171c2.5-1.1,5.8-0.6,5.8-0.6c0,0-2.3,0.8-4.8,2.1c-2.5,1.3-4.4,2.6-4.3,1.8
			C165.1,173.4,165.9,172.1,168.4,171z"/>
		<path fill="#007444" d="M167,153.8c2.9,0,7.2,2.5,7.2,2.5c0,0-2.8-0.3-5.6,0c-2.8,0.3-4.7,1-4.9-0.1
			C163.6,155.1,164.2,153.8,167,153.8z"/>
		<path fill="#007444" d="M165.6,142.7c2.8,0,7.1,2.5,7.1,2.5c0,0-2.7-0.3-5.4,0c-2.7,0.3-4.5,1-4.7-0.1
			C162.4,144,162.9,142.7,165.6,142.7z"/>
		<path fill="#007444" d="M166.2,132.9c-2,0.2-3.4,0.8-3.5-0.1c-0.2-0.9,0.2-1.9,2.3-1.9c2.1,0,5.3,2,5.3,2
			C170.3,132.9,168.3,132.6,166.2,132.9z"/>
		<path fill="#007444" d="M164,123.5c-2.5,0.3-4.2,1.1-4.4-0.1c-0.2-1.1,0.4-2.5,3-2.5c2.5,0,6.4,2.5,6.4,2.5
			C169.1,123.5,166.6,123.2,164,123.5z"/>
		<path fill="#007444" d="M168.7,166.2c2.4,0,5.7,2,5.7,2c0,0-2.3-0.2-4.6,0c-2.4,0.2-4,0.8-4-0.1
			C165.7,167.2,166.3,166.2,168.7,166.2z"/>
	</g>
	<path fill="#007444" d="M182.3,162c3.6,1.3,4.5,3,4.5,4.1c-0.1,1.1-2.5-0.6-6-2.2c-3.5-1.7-6.9-2.6-6.9-2.6
		C173.9,161.2,178.7,160.6,182.3,162z"/>
	<path fill="#007444" d="M180.9,150.8c3.6,1.3,4.7,3,4.7,4.1c0,1.1-2.5-0.6-6-2.2c-3.6-1.7-6.9-2.6-6.9-2.6
		C172.7,150,177.4,149.5,180.9,150.8z"/>
	<path fill="#007444" d="M181.1,141.7c0.1,0.8-1.9-0.5-4.6-1.8c-2.7-1.3-5.3-2.1-5.3-2.1c0,0,3.5-0.4,6.2,0.6
		C180.2,139.6,181,140.9,181.1,141.7z"/>
	<path fill="#007444" d="M169.8,128.5c0,0,4.3-0.6,7.6,0.8c3.3,1.4,4.4,3,4.6,4.1c0.1,1.1-2.3-0.6-5.7-2.3
		C172.9,129.5,169.8,128.5,169.8,128.5z"/>
	<path fill="#007444" d="M186.2,159c0,1.1-2.4,0.4-5.8,0.1c-3.4-0.3-6.7,0-6.7,0c0,0,4.6-2.5,8-2.5
		C185.2,156.6,186.2,157.9,186.2,159z"/>
	<path fill="#007444" d="M184.4,147.9c0.1,1.1-2.2,0.4-5.6,0.1c-3.3-0.3-6.4,0-6.4,0c0,0,4.3-2.5,7.5-2.5
		C183.2,145.5,184.3,146.8,184.4,147.9z"/>
	<path fill="#007444" d="M175.7,135.7c-2.5-0.2-4.8,0-4.8,0c0,0,3.2-2,5.7-2c2.5,0,3.3,1,3.4,1.9C180,136.5,178.2,135.9,175.7,135.7
		z"/>
	<path fill="#007444" d="M175.5,126.2c-3.1-0.3-6,0-6,0c0,0,4-2.5,7.1-2.5c3,0,4,1.3,4.1,2.5C180.7,127.3,178.5,126.6,175.5,126.2z"
		/>
	<path fill="#007444" d="M184.6,170.9c-0.1,0.9-2,0.3-4.8,0.1c-2.8-0.2-5.5,0-5.5,0c0,0,4.1-2,6.9-2C184,169,184.7,170,184.6,170.9z
		"/>
	<path fill="#007444" d="M168.9,190.3c0.8,0,1.7,0,2.5,0c10.2-23.5-0.1-47-2.1-70.6c-0.3-0.1-0.7-0.1-1-0.2
		C169.9,143.1,179.7,166.7,168.9,190.3z"/>
	<path fill="#007444" d="M168.2,121.5c0,0-5-2.4-4.3-4.3c0.7-1.9,3.7,1.1,3.7,1.1c-0.6-2.3,2.5-1.1,2.4,0.9c-0.3,2-1,2.8-1,2.8
		C168.7,121.9,168.4,121.7,168.2,121.5z"/>
	<path fill="#F9EBC1" d="M159.8,183.4c0,0,24.8-5.3,59.2-2.1c34.4,3.2,47.7,23.2,47.7,23.2H157.2L159.8,183.4z"/>
	<g>
		<g>
			<path fill="#22B35F" d="M36.7,167.5c4.4-2.2,11.1-1.3,11.1-1.3c0,0-4.2,1.6-8.5,4.3c-4.4,2.7-7.4,5.4-7.7,3.6
				C31.4,172.4,32.3,169.7,36.7,167.5z"/>
			<path fill="#22B35F" d="M34.3,149.5c4.1-2.2,10.5-1.3,10.5-1.3c0,0-3.9,1.6-7.9,4.3c-4,2.7-6.7,5.4-7.1,3.6
				C29.4,154.4,30.2,151.7,34.3,149.5z"/>
			<path fill="#22B35F" d="M30,134.8c-0.2-1.4,0.4-3.5,3.5-5.2c3.1-1.7,7.8-1,7.8-1c0,0-3,1.3-6,3.4C32.3,134.1,30.3,136.2,30,134.8
				z"/>
			<path fill="#22B35F" d="M32.9,114.4c3.3-1.8,7.9-1.1,7.9-1.1c0,0-3.1,1.3-6.4,3.5c-3.3,2.2-5.5,4.4-5.6,3
				C28.7,118.4,29.6,116.2,32.9,114.4z"/>
			<path fill="#22B35F" d="M39.8,186.7c3.9-1.7,9.4-1,9.4-1c0,0-3.6,1.3-7.5,3.4c-3.9,2.1-6.7,4.2-6.8,2.8
				C34.8,190.5,35.9,188.4,39.8,186.7z"/>
			<path fill="#22B35F" d="M35.6,158.8c4.5,0,11.7,4.1,11.7,4.1c0,0-4.5-0.5-9,0c-4.5,0.5-7.4,1.7-7.8-0.1
				C30.2,161,31.1,158.8,35.6,158.8z"/>
			<path fill="#22B35F" d="M33.2,140.9c4.3,0,11.1,4.1,11.1,4.1c0,0-4.2-0.5-8.5,0c-4.2,0.5-7,1.7-7.4-0.1
				C28,143,28.9,140.8,33.2,140.9z"/>
			<path fill="#22B35F" d="M34.9,125c-3.2,0.4-5.3,1.3-5.4-0.1c-0.2-1.4,0.6-3.1,3.8-3.1c3.2,0,7.9,3.2,7.9,3.2
				C41.1,125,38,124.6,34.9,125z"/>
			<path fill="#22B35F" d="M33.4,109.7c-3.9,0.5-6.7,1.7-6.6-0.1c0.1-1.8,1.4-4,5.2-4c3.8,0,8.9,4.1,9,4.1
				C41,109.7,37.3,109.2,33.4,109.7z"/>
			<path fill="#22B35F" d="M39.5,178.8c3.8,0,9.5,3.2,9.5,3.2c0,0-3.7-0.4-7.5,0c-3.8,0.4-6.3,1.3-6.5-0.1
				C34.9,180.5,35.7,178.8,39.5,178.8z"/>
		</g>
		<g>
			<path fill="#22B35F" d="M60.9,172c5.9,2.2,7.8,4.9,7.8,6.6c0.1,1.7-4.1-0.9-10.1-3.6c-5.9-2.7-11.4-4.3-11.4-4.3
				C47.3,170.7,55,169.8,60.9,172z"/>
			<path fill="#22B35F" d="M57.5,154c5.8,2.2,7.7,4.9,7.9,6.6c0.2,1.7-4-0.9-9.8-3.6c-5.8-2.7-11.1-4.3-11.1-4.3
				C44.5,152.7,51.7,151.8,57.5,154z"/>
			<path fill="#22B35F" d="M57.4,139.3c0.1,1.4-3-0.7-7.2-2.8c-4.2-2.1-8.1-3.4-8.1-3.4c0,0,5.4-0.7,9.6,1
				C55.9,135.8,57.3,137.9,57.4,139.3z"/>
			<path fill="#22B35F" d="M41,117.9c0,0,6.7-0.9,11.6,1.3c4.9,2.2,6.4,4.9,6.5,6.7c0.1,1.8-3.6-0.9-8.6-3.6
				C45.5,119.5,41,117.9,41,117.9z"/>
			<path fill="#22B35F" d="M60.7,191.2c4.7,1.7,5.8,3.8,5.6,5.2c-0.2,1.4-3.3-0.7-7.9-2.8c-4.6-2.1-9-3.4-9-3.4
				C49.5,190.2,56,189.5,60.7,191.2z"/>
			<path fill="#22B35F" d="M66.8,167.3c0.2,1.8-3.7,0.6-9.3,0.1c-5.5-0.5-10.7,0-10.7,0c0,0,7.1-4,12.5-4.1
				C64.8,163.3,66.6,165.5,66.8,167.3z"/>
			<path fill="#22B35F" d="M62.8,149.3c0.2,1.8-3.5,0.6-8.8,0.1c-5.2-0.5-10.1,0-10.1,0c0,0,6.7-4,11.8-4.1
				C60.8,145.3,62.5,147.5,62.8,149.3z"/>
			<path fill="#22B35F" d="M49.2,129.5c-3.8-0.4-7.5,0-7.5,0c0,0,5.1-3.2,8.9-3.2c3.8,0,4.9,1.7,5,3.1
				C55.7,130.8,53,129.9,49.2,129.5z"/>
			<path fill="#22B35F" d="M50.1,114.2c-4.6-0.5-9.1,0-9.1,0c0,0,6.7-4.1,11.3-4.1c4.6,0,5.7,2.1,5.7,4
				C57.9,116,54.7,114.7,50.1,114.2z"/>
			<path fill="#22B35F" d="M66,186.5c-0.1,1.4-3.2,0.5-7.7,0.1c-4.5-0.4-8.9,0-8.9,0c0,0,6.3-3.2,10.8-3.2
				C64.8,183.3,66.1,185,66,186.5z"/>
		</g>
		<path fill="#22B35F" d="M43.6,217.8c1.4,0,2.7,0,4.1,0c13.1-38-9.9-76.1-5.3-114.1c-0.5-0.1-0.9-0.2-1.4-0.3
			C35.5,141.5,57.9,179.7,43.6,217.8z"/>
		<path fill="#22B35F" d="M40.2,107.1c0,0-1.6-5.8,1.1-6.3c2.6-0.5,1.7,3.8,1.8,3.8c1.9-1.9,4-3.6,6.4-5.1c-0.1-0.1-3.2,6.5-5.4,7.7
			c-2.4,1-3.7,0.9-3.7,0.9C40.2,107.7,40.2,107.4,40.2,107.1z"/>
	</g>
	<g>
		<g>
			<g>
				<path fill="#A3CE54" d="M56.1,172c3.1-1.8,7.9-1.1,7.9-1.1c0,0-2.9,1.3-5.9,3.5c-3,2.2-5.1,4.4-5.3,3
					C52.5,176,53,173.8,56.1,172z"/>
				<path fill="#A3CE54" d="M53.5,157.2c2.8-1.8,7.5-1.1,7.5-1.1c0,0-2.7,1.3-5.5,3.5c-2.7,2.2-4.6,4.4-4.9,3
					C50.2,161.2,50.6,159,53.5,157.2z"/>
				<path fill="#A3CE54" d="M49.4,145.2c-0.3-1.1,0-2.9,2.1-4.3c2.1-1.4,5.6-0.8,5.6-0.8c0,0-2.1,1-4.1,2.8
					C51,144.6,49.7,146.3,49.4,145.2z"/>
				<path fill="#A3CE54" d="M48,128.6c2.7-1.8,7-1.1,7-1.1c0,0-2.6,1.3-5.2,3.5c-2.6,2.2-4.3,4.4-4.6,3
					C44.8,132.7,45.3,130.4,48,128.6z"/>
				<path fill="#A3CE54" d="M58.9,187.8c2.7-1.4,6.6-0.8,6.6-0.8c0,0-2.5,1-5.2,2.8c-2.7,1.7-4.6,3.5-4.7,2.3
					C55.6,190.9,56.2,189.2,58.9,187.8z"/>
				<path fill="#A3CE54" d="M54.9,164.9c3.3,0,8.6,3.3,8.6,3.3c0,0-3.2-0.4-6.4,0c-3.2,0.4-5.3,1.4-5.6-0.1
					C51.2,166.7,51.7,164.9,54.9,164.9z"/>
				<path fill="#A3CE54" d="M52.1,150.1c3.1,0,8.3,3.3,8.3,3.3c0,0-3.1-0.4-6.1,0c-3,0.4-5,1.4-5.3-0.1
					C48.5,151.9,49,150.1,52.1,150.1z"/>
				<path fill="#A3CE54" d="M52,137.1c-2.3,0.3-3.7,1.1-4-0.1c-0.3-1.2,0.1-2.6,2.4-2.5c2.3,0,6.1,2.6,6.1,2.6
					C56.5,137.1,54.2,136.8,52,137.1z"/>
				<path fill="#A3CE54" d="M49,124.6c-2.8,0.4-4.7,1.4-4.9-0.1c-0.2-1.5,0.4-3.3,3.3-3.3c2.8,0,7.2,3.4,7.3,3.4
					C54.6,124.6,51.8,124.2,49,124.6z"/>
				<path fill="#A3CE54" d="M58.5,181.3c2.7,0,6.8,2.6,6.8,2.6c0,0-2.6-0.3-5.3,0c-2.7,0.3-4.4,1.1-4.6-0.1
					C55.3,182.7,55.8,181.3,58.5,181.3z"/>
			</g>
			<g>
				<path fill="#A3CE54" d="M73.5,175.7c4.3,1.8,5.7,4,5.7,5.4c0.1,1.4-2.9-0.8-7.2-3c-4.3-2.2-8.3-3.5-8.3-3.5
					C63.8,174.7,69.2,173.9,73.5,175.7z"/>
				<path fill="#A3CE54" d="M70.4,160.9c4.2,1.8,5.7,4,5.9,5.4c0.2,1.4-2.9-0.8-7.2-3c-4.3-2.2-8.2-3.5-8.2-3.5
					C61,159.9,66.2,159.2,70.4,160.9z"/>
				<path fill="#A3CE54" d="M69.6,148.9c0.2,1.1-2.2-0.6-5.4-2.3c-3.2-1.7-6.1-2.8-6.1-2.8c0,0,3.9-0.6,7.1,0.8
					C68.3,146,69.4,147.8,69.6,148.9z"/>
				<path fill="#A3CE54" d="M55.7,131.3c0,0,4.8-0.7,8.6,1.1c3.9,1.8,5.2,4,5.4,5.5c0.2,1.4-2.7-0.8-6.6-3
					C59.2,132.6,55.7,131.3,55.7,131.3z"/>
				<path fill="#A3CE54" d="M73.8,191.5c3.3,1.4,4.2,3.1,4.1,4.3c-0.1,1.1-2.3-0.6-5.6-2.3c-3.3-1.7-6.4-2.8-6.4-2.8
					C65.9,190.6,70.5,190,73.8,191.5z"/>
				<path fill="#A3CE54" d="M77.5,171.8c0.2,1.5-2.7,0.5-6.6,0.1c-4-0.4-7.6,0-7.6,0c0,0,5-3.3,8.8-3.3
					C76,168.6,77.4,170.4,77.5,171.8z"/>
				<path fill="#A3CE54" d="M74,157.1c0.3,1.5-2.5,0.5-6.3,0.1c-3.8-0.4-7.3,0-7.3,0c0,0,4.6-3.3,8.3-3.3
					C72.4,153.8,73.7,155.6,74,157.1z"/>
				<path fill="#A3CE54" d="M62.9,140.8c-2.8-0.3-5.5,0-5.5,0c0,0,3.5-2.6,6.2-2.6c2.8,0,3.8,1.4,4,2.5
					C67.8,141.9,65.7,141.1,62.9,140.8z"/>
				<path fill="#A3CE54" d="M61.9,128.3c-3.5-0.4-6.7,0-6.7,0c0,0,4.4-3.3,7.8-3.4c3.4,0,4.5,1.8,4.7,3.3
					C67.9,129.7,65.4,128.7,61.9,128.3z"/>
				<path fill="#A3CE54" d="M77.5,187.6c0,1.2-2.2,0.4-5.5,0.1c-3.2-0.3-6.3,0-6.3,0c0,0,4.4-2.6,7.6-2.6
					C76.6,185,77.5,186.4,77.5,187.6z"/>
			</g>
			<path fill="#A3CE54" d="M62.8,213.3c1,0,1.9,0,2.9,0c7.5-31.2-8.1-62.5-10.8-93.7c-0.4-0.1-0.7-0.2-1.1-0.3
				C55.9,150.7,71.1,182,62.8,213.3z"/>
			<path fill="#A3CE54" d="M55.1,119.6c0,0,4.6-4.7,3.1-6.9c-1.5-2.2-3.5,2.6-3.5,2.6c-0.2-3.1-0.5-6.2-1-9.3
				c0.1,0-2.1,8.6-1.3,11.2c1,2.5,2.1,3.3,2.1,3.3C54.7,120.3,54.9,119.9,55.1,119.6z"/>
		</g>
		<g>
			<path fill="#A3CE54" d="M27.4,184.6c2.6-1.2,6.5-0.7,6.5-0.7c0,0-2.5,0.9-5.1,2.4c-2.6,1.5-4.5,3.1-4.6,2.1
				C24.1,187.4,24.8,185.8,27.4,184.6z"/>
			<path fill="#A3CE54" d="M26.4,174.3c2.4-1.2,6.2-0.7,6.2-0.7c0,0-2.3,0.9-4.7,2.4c-2.4,1.5-4,3.1-4.2,2.1
				C23.5,177.1,24,175.5,26.4,174.3z"/>
			<path fill="#A3CE54" d="M23.8,165.9c-0.2-0.8,0.1-2,2-3c1.8-1,4.6-0.6,4.6-0.6c0,0-1.7,0.7-3.5,1.9
				C25.1,165.5,24,166.7,23.8,165.9z"/>
			<path fill="#A3CE54" d="M23.4,154.4c2.3-1.3,5.8-0.7,5.8-0.7c0,0-2.2,0.9-4.4,2.5c-2.2,1.5-3.7,3.1-3.9,2.1
				C20.6,157.2,21.1,155.6,23.4,154.4z"/>
			<path fill="#A3CE54" d="M28.3,195.5c2.3-1,5.4-0.6,5.4-0.6c0,0-2.1,0.7-4.5,1.9c-2.3,1.2-4,2.4-4,1.6
				C25.3,197.7,26,196.5,28.3,195.5z"/>
			<path fill="#A3CE54" d="M27,179.6c2.7,0,6.7,2.3,6.7,2.3c0,0-2.6-0.3-5.2,0c-2.6,0.3-4.4,1-4.5-0.1
				C23.8,180.8,24.4,179.6,27,179.6z"/>
			<path fill="#A3CE54" d="M25.8,169.3c2.5,0,6.5,2.3,6.5,2.3c0,0-2.5-0.3-5,0c-2.5,0.3-4.1,1-4.3-0.1
				C22.7,170.6,23.2,169.3,25.8,169.3z"/>
			<path fill="#A3CE54" d="M26.3,160.3c-1.9,0.2-3.1,0.8-3.3-0.1c-0.2-0.8,0.2-1.8,2.1-1.8c1.9,0,4.9,1.8,4.9,1.8
				C30.1,160.3,28.2,160,26.3,160.3z"/>
			<path fill="#A3CE54" d="M24.3,151.6c-2.3,0.3-3.9,1-4-0.1c-0.1-1,0.4-2.3,2.7-2.3c2.3,0,5.9,2.3,5.9,2.3
				C28.9,151.6,26.6,151.3,24.3,151.6z"/>
			<path fill="#A3CE54" d="M28.5,191.1c2.2,0,5.3,1.8,5.2,1.8c0,0-2.1-0.2-4.3,0c-2.2,0.2-3.7,0.8-3.7-0.1
				C25.8,192,26.4,191,28.5,191.1z"/>
		</g>
		<path fill="#A3CE54" d="M41.2,187.1c3.3,1.2,4.2,2.8,4.1,3.8c-0.1,1-2.3-0.5-5.6-2.1c-3.3-1.5-6.4-2.4-6.4-2.4
			C33.4,186.4,37.9,185.9,41.2,187.1z"/>
		<path fill="#A3CE54" d="M39.9,176.9c3.3,1.2,4.3,2.8,4.4,3.8c0,1-2.3-0.5-5.6-2.1c-3.3-1.5-6.4-2.4-6.4-2.4
			C32.3,176.1,36.6,175.6,39.9,176.9z"/>
		<path fill="#A3CE54" d="M40.1,168.5c0.1,0.8-1.7-0.4-4.3-1.6c-2.5-1.2-4.9-1.9-4.9-1.9c0,0,3.2-0.4,5.7,0.6
			C39.2,166.5,40,167.7,40.1,168.5z"/>
		<path fill="#A3CE54" d="M29.6,156.2c0,0,4-0.5,7.1,0.7c3.1,1.3,4.1,2.8,4.2,3.8c0.1,1-2.2-0.5-5.3-2.1
			C32.4,157.1,29.6,156.2,29.6,156.2z"/>
		<path fill="#A3CE54" d="M44.8,184.5c0,1-2.2,0.4-5.4,0.1c-3.2-0.3-6.2,0-6.2,0c0,0,4.3-2.3,7.4-2.3
			C43.8,182.2,44.8,183.4,44.8,184.5z"/>
		<path fill="#A3CE54" d="M43.1,174.2c0.1,1-2.1,0.4-5.1,0.1c-3.1-0.3-5.9,0-5.9,0c0,0,4-2.3,7-2.3C42,171.9,43,173.1,43.1,174.2z"
			/>
		<path fill="#A3CE54" d="M35.1,162.8c-2.3-0.2-4.5,0-4.5,0c0,0,3-1.8,5.2-1.8c2.3,0,3,1,3.1,1.8C39,163.6,37.4,163.1,35.1,162.8z"
			/>
		<path fill="#A3CE54" d="M34.8,154.1c-2.8-0.3-5.5,0-5.5,0c0,0,3.7-2.3,6.5-2.3c2.8,0,3.7,1.2,3.8,2.3
			C39.7,155.1,37.7,154.4,34.8,154.1z"/>
		<path fill="#A3CE54" d="M43.3,195.4c-0.1,0.8-1.8,0.3-4.4,0.1c-2.6-0.2-5.1,0-5.1,0c0,0,3.8-1.8,6.4-1.8
			C42.8,193.6,43.4,194.6,43.3,195.4z"/>
		<path fill="#A3CE54" d="M28.8,213.3c0.8,0,1.5,0,2.3,0c9.4-21.7-0.1-43.5-1.9-65.2c-0.3-0.1-0.6-0.1-0.9-0.2
			C29.7,169.7,38.8,191.5,28.8,213.3z"/>
		<path fill="#A3CE54" d="M28.1,149.7c0,0-4.7-2.2-4-4c0.6-1.8,3.4,1,3.4,1c-0.6-2.1-1.1-4.3-1.4-6.4c-0.1,0,3.8,5.4,3.6,7.2
			c-0.3,1.9-0.9,2.6-0.9,2.6C28.6,150.1,28.3,149.9,28.1,149.7z"/>
	</g>
	<path fill="#F9EBC1" d="M8.1,223.3c0,0,22.5-20.3,44.8-20.3c22.3,0,25.5,6.8,25.5,6.8l0.3,16.2L8.1,223.3z"/>
	<g>
		<path fill="#D4C78E" d="M181.4,204.4c3.1-3.5,7.1-12.8,6.9-13.4c-0.4-0.9-1.3-1.5-2.3-1.4c0-0.3,0-0.6-0.2-1
			c-0.5-1.2-1.9-1.7-3.2-1.2c-0.1,0-0.2,0.1-0.2,0.1l0,0c0,0,0,0-0.1,0c0,0,0,0,0,0c-0.5-1.2-1.9-1.7-3.2-1.2
			c-0.3,0.1-0.5,0.2-0.7,0.4c-0.3-0.3-0.6-0.5-1-0.6c0,0-0.1,0-0.1,0c-0.3-0.1-0.7-0.1-1-0.1c0,0-0.1,0-0.1,0
			c-0.2,0-0.3,0.1-0.5,0.1c-0.2,0.1-0.4,0.2-0.6,0.3c-0.1,0.1-0.2,0.1-0.2,0.2c-0.1,0.1-0.1,0.1-0.2,0.2l0,0c0,0,0,0,0,0
			c-0.7-0.4-1.6-0.4-2.4-0.1c-0.7,0.3-1.2,0.8-1.5,1.3l0,0c-0.1,0.1-0.1,0.2-0.1,0.3c-0.3,0-0.7,0.1-1,0.2c-0.1,0-0.2,0.1-0.4,0.2
			c0,0-0.1,0-0.1,0.1c-0.1,0-0.1,0.1-0.2,0.2c-0.1,0-0.1,0.1-0.2,0.1c0,0-0.1,0.1-0.1,0.1c-0.1,0.1-0.1,0.2-0.2,0.2c0,0,0,0,0,0
			c-0.1,0.1-0.1,0.2-0.2,0.3c0,0,0,0,0,0c-0.2,0.3-0.2,0.7-0.3,1l0,0l0,0c0,0,0,0,0,0.1c-0.3,0-0.5,0.1-0.8,0.2
			c-1.2,0.5-1.9,1.8-1.5,3l0,0c0,0,0,0.1,0,0.1c0,0,0,0,0,0c-0.1,0-0.2,0.1-0.3,0.1c-1.3,0.5-1.9,1.9-1.4,3.1
			c0.1,0.3,0.3,0.6,0.6,0.8c-0.8,0.7-1.1,1.7-0.7,2.6c0.2,0.5,9.2,4.5,13.8,5c-0.6,1-1.2,2.1-0.8,2.4c0.6,0.7,2.3,1.1,4.3,0.2
			c2-0.8,2.7-2,2.5-2.8C183.7,205.3,182.5,204.8,181.4,204.4z"/>
		<g>
			<path fill="#54BF9B" d="M163.3,199.2c0.2,0.6,12.8,6.1,15.8,4.9c3-1.2,8.7-14,8.4-14.6c-0.4-0.9-1.3-1.5-2.3-1.4
				c0-0.3,0-0.6-0.2-1c-0.5-1.2-1.9-1.7-3.2-1.2c-0.1,0-0.2,0.1-0.3,0.1c0,0,0,0,0,0c-0.5-1.2-1.9-1.7-3.2-1.2
				c-0.3,0.1-0.5,0.2-0.7,0.4c-0.7-0.7-1.7-0.9-2.7-0.5c-0.4,0.2-0.8,0.4-1,0.7c-0.7-0.4-1.6-0.4-2.4-0.1c-0.8,0.3-1.3,0.9-1.6,1.6
				c-0.3,0-0.7,0.1-1,0.2c-1,0.4-1.6,1.3-1.6,2.3c-0.3,0-0.5,0.1-0.8,0.2c-1.3,0.5-1.9,1.9-1.4,3.1c0,0,0,0,0,0
				c-0.1,0-0.2,0.1-0.3,0.1c-1.3,0.5-1.9,1.9-1.4,3.1c0.1,0.3,0.3,0.6,0.6,0.8C163.2,197.2,162.9,198.2,163.3,199.2z"/>
			<path fill="#ADDCCF" d="M163.4,195.7c0.1,0.3,0.3,0.6,0.6,0.8c0,0,0,0-0.1,0.1l14.4,7.6c0.3,0,0.6-0.1,0.8-0.2
				c0.1,0,0.2-0.1,0.3-0.1c0,0,5.9-15.9,5.8-15.9c0-0.3,0-0.6-0.2-1c-0.5-1.2-1.9-1.7-3.2-1.2c-0.1,0-0.2,0.1-0.2,0.1l-2.6,16.5
				l-1.9-17.8c-0.6-0.3-1.4-0.4-2.2-0.1c-0.4,0.2-0.7,0.4-1,0.7l4.5,17.2l-8.4-16c-0.1,0.1-0.1,0.2-0.1,0.3c-0.3,0-0.7,0.1-1,0.2
				c-1,0.4-1.6,1.3-1.6,2.2l10.7,13.8l-13-10.6c0,0,0,0.1,0,0.1c0,0,0,0,0,0c-0.1,0-0.2,0.1-0.3,0.1
				C163.6,193.2,162.9,194.6,163.4,195.7z"/>
			<path fill="#ADDCCF" d="M183.1,204.1c-0.2-0.7-4.6-1.9-4.6-1.9s-2.8,3.7-2.2,4.4c0.6,0.7,2.3,1.1,4.3,0.2
				C182.6,206,183.2,204.8,183.1,204.1z"/>
		</g>
	</g>
	<g>
		<path fill="#D4C78E" d="M40.6,211.6c0.5-0.8,0.2-1.9-0.7-2.4c-0.1,0-0.1-0.1-0.2-0.1l0,0c0,0,0,0,0,0c0,0,0,0,0,0
			c0.5-0.8,0.2-1.9-0.7-2.4c-0.2-0.1-0.4-0.2-0.5-0.2c0-0.2,0-0.4,0-0.5l0,0c0-0.2-0.1-0.3-0.1-0.4c0,0,0-0.1-0.1-0.1
			c-0.1-0.1-0.1-0.2-0.2-0.3c0,0-0.1-0.1-0.1-0.1c-0.1-0.1-0.2-0.2-0.4-0.3c-0.1-0.1-0.3-0.1-0.4-0.2c-0.1,0-0.1,0-0.2,0
			c-0.1,0-0.2,0-0.2,0l0,0c0,0,0,0,0,0c-0.1-0.6-0.4-1.1-1-1.4c-0.5-0.3-1-0.3-1.4-0.3l0,0c-0.1,0-0.2,0-0.2,0.1
			c-0.1-0.2-0.3-0.4-0.6-0.5c-0.2-0.1-0.3-0.2-0.5-0.2c-0.1,0-0.2,0-0.3,0c-0.1,0-0.2,0-0.3,0c-0.1,0-0.2,0-0.3,0.1
			c-0.1,0-0.1,0-0.2,0c-0.1,0-0.2,0.1-0.3,0.2c0,0-0.1,0-0.1,0.1l0,0c0,0,0,0,0,0c-0.1-0.1-0.3-0.3-0.5-0.4
			c-0.8-0.5-1.9-0.3-2.4,0.5v0c0,0,0,0,0,0.1c0,0,0,0,0,0c-0.1,0-0.1-0.1-0.2-0.1c-0.9-0.5-2-0.3-2.4,0.5c-0.1,0.2-0.2,0.4-0.2,0.7
			c0,0,0,0-0.1,0l0,0c-0.7-0.1-1.4,0.2-1.8,0.8c-0.2,0.3,1.5,7.4,3.3,10.3c-0.9,0.1-1.7,0.3-1.8,0.6c-0.1,0.7,0.4,1.8,1.8,2.6
			c1.4,0.8,2.4,0.7,2.7,0.2c0.2-0.2-0.1-1.2-0.4-2c3.4,0.2,10.6-1.6,10.9-2c0.4-0.6,0.3-1.4-0.2-2C40.3,212,40.4,211.8,40.6,211.6z"
			/>
		<g>
			<path fill="#E885B6" d="M23.1,202.9c-0.2,0.4,2.2,10.1,4.2,11.4c2.1,1.2,12-1.2,12.2-1.7c0.4-0.6,0.3-1.4-0.2-2
				c0.2-0.1,0.4-0.3,0.5-0.5c0.5-0.8,0.2-1.9-0.7-2.4c-0.1,0-0.1-0.1-0.2-0.1c0,0,0,0,0,0c0.5-0.8,0.2-1.9-0.7-2.4
				c-0.2-0.1-0.4-0.2-0.5-0.2c0.1-0.7-0.2-1.4-0.9-1.8c-0.3-0.2-0.6-0.2-0.9-0.3c-0.1-0.6-0.4-1.1-1-1.4c-0.5-0.3-1.1-0.4-1.6-0.2
				c-0.1-0.2-0.3-0.4-0.6-0.5c-0.7-0.4-1.5-0.3-2,0.1c-0.1-0.1-0.3-0.3-0.5-0.4c-0.9-0.5-1.9-0.3-2.4,0.5c0,0,0,0,0,0
				c-0.1,0-0.1-0.1-0.2-0.1c-0.9-0.5-2-0.3-2.4,0.5c-0.1,0.2-0.2,0.4-0.2,0.7C24.2,201.9,23.4,202.2,23.1,202.9z"/>
			<path fill="#E44699" d="M25.1,201.4c-0.1,0.2-0.2,0.4-0.2,0.7c0,0,0,0-0.1,0l2,11.7c0.2,0.2,0.3,0.3,0.5,0.4
				c0.1,0,0.1,0.1,0.2,0.1c0,0,11.9-3.7,11.8-3.7c0.2-0.1,0.4-0.3,0.5-0.5c0.5-0.8,0.2-1.9-0.7-2.4c-0.1,0-0.1-0.1-0.2-0.1
				l-10.7,5.9l9.4-9c-0.1-0.5-0.4-1-0.9-1.3c-0.3-0.2-0.6-0.2-0.9-0.3l-8,10.3l5.5-12c-0.1,0-0.2,0-0.2,0.1
				c-0.1-0.2-0.3-0.4-0.6-0.5c-0.7-0.4-1.5-0.3-2,0.1l-3.2,12.4l0.3-12.2c0,0,0,0,0,0.1c0,0,0,0,0,0c-0.1,0-0.1-0.1-0.2-0.1
				C26.7,200.4,25.6,200.6,25.1,201.4z"/>
			<path fill="#E44699" d="M29,216.5c0.3-0.4-1-3.5-1-3.5s-3.4,0-3.5,0.7c-0.1,0.7,0.4,1.8,1.8,2.6C27.7,217.1,28.7,217,29,216.5z"
				/>
		</g>
	</g>
	<g>
		<g>
			<g>
				<path fill="#22B35F" d="M133.7,95.8c-4.8-2.4-12-1.4-12.1-1.4c0,0,4.5,1.7,9.3,4.6c4.7,2.9,8,5.8,8.3,3.9
					C139.5,101.1,138.5,98.2,133.7,95.8z"/>
				<path fill="#22B35F" d="M136.3,76.3c-4.5-2.4-11.4-1.4-11.4-1.4c0,0,4.2,1.7,8.6,4.6c4.4,2.9,7.3,5.8,7.7,3.9
					C141.6,81.6,140.8,78.7,136.3,76.3z"/>
				<path fill="#22B35F" d="M140.9,60.3c0.3-1.5-0.4-3.8-3.9-5.6c-3.4-1.9-8.5-1.1-8.5-1.1c0,0,3.2,1.4,6.6,3.7
					C138.5,59.6,140.7,61.8,140.9,60.3z"/>
				<path fill="#22B35F" d="M137.8,38.2c-3.6-1.9-8.5-1.1-8.5-1.1c0,0,3.4,1.4,6.9,3.8c3.5,2.4,5.9,4.8,6.1,3.2
					C142.4,42.5,141.4,40.1,137.8,38.2z"/>
				<path fill="#22B35F" d="M130.4,116.6c-4.2-1.9-10.2-1.1-10.2-1.1c0,0,3.9,1.4,8.2,3.7c4.2,2.3,7.3,4.6,7.3,3.1
					C135.8,120.8,134.6,118.5,130.4,116.6z"/>
				<path fill="#22B35F" d="M134.9,86.4c-4.9,0-12.7,4.4-12.7,4.4c0,0,4.8-0.5,9.7,0c4.9,0.5,8.1,1.8,8.5-0.1
					C140.7,88.7,139.8,86.4,134.9,86.4z"/>
				<path fill="#22B35F" d="M137.5,66.9c-4.6,0-12,4.4-12,4.4c0,0,4.6-0.5,9.2,0c4.6,0.5,7.6,1.8,8-0.1
					C143.1,69.2,142.2,66.9,137.5,66.9z"/>
				<path fill="#22B35F" d="M135.7,49.7c3.4,0.4,5.7,1.4,5.9-0.1c0.2-1.6-0.6-3.4-4.1-3.4c-3.4,0-8.6,3.5-8.6,3.5
					C128.9,49.7,132.3,49.2,135.7,49.7z"/>
				<path fill="#22B35F" d="M137.3,33.1c4.2,0.5,7.2,1.9,7.2-0.1c-0.1-2-1.5-4.3-5.7-4.3c-4.1,0-9.7,4.4-9.7,4.4
					C129.1,33.1,133.1,32.6,137.3,33.1z"/>
				<path fill="#22B35F" d="M130.6,108.1c-4.1,0-10.3,3.5-10.3,3.5c0,0,4-0.4,8.1,0c4.1,0.4,6.9,1.4,7-0.1
					C135.7,109.9,134.8,108.1,130.6,108.1z"/>
			</g>
			<g>
				<path fill="#22B35F" d="M107.4,100.7c-6.4,2.4-8.4,5.3-8.5,7.2c-0.1,1.9,4.5-1,10.9-3.9c6.4-2.9,12.4-4.6,12.4-4.6
					C122.2,99.3,113.8,98.3,107.4,100.7z"/>
				<path fill="#22B35F" d="M111.2,81.2c-6.2,2.4-8.3,5.3-8.6,7.2c-0.2,1.9,4.3-1,10.6-3.9c6.3-2.9,12-4.6,12-4.6
					C125.3,79.8,117.4,78.8,111.2,81.2z"/>
				<path fill="#22B35F" d="M111.3,65.2c-0.2,1.5,3.2-0.8,7.8-3.1c4.6-2.3,8.8-3.7,8.8-3.7c0,0-5.9-0.8-10.4,1.1
					C112.9,61.4,111.4,63.7,111.3,65.2z"/>
				<path fill="#22B35F" d="M129.1,42c0,0-7.2-1-12.5,1.4c-5.3,2.4-7,5.3-7.1,7.2c-0.1,1.9,3.9-1,9.3-4
					C124.2,43.7,129.1,42,129.1,42z"/>
				<path fill="#22B35F" d="M107.7,121.5c-5.1,1.9-6.3,4.2-6.1,5.6c0.2,1.5,3.5-0.8,8.5-3.1c5-2.3,9.7-3.7,9.7-3.7
					C119.9,120.4,112.8,119.6,107.7,121.5z"/>
				<path fill="#22B35F" d="M101.1,95.6c-0.2,2,4.1,0.7,10,0.1c6-0.5,11.6,0,11.6,0c0,0-7.7-4.4-13.6-4.4
					C103.2,91.3,101.3,93.6,101.1,95.6z"/>
				<path fill="#22B35F" d="M105.4,76.1c-0.3,2,3.8,0.7,9.5,0.1c5.7-0.5,11,0,11,0c0,0-7.2-4.4-12.8-4.4
					C107.6,71.8,105.7,74.1,105.4,76.1z"/>
				<path fill="#22B35F" d="M120.2,54.6c4.2-0.4,8.1,0,8.1,0c0,0-5.6-3.4-9.7-3.5c-4.1,0-5.4,1.8-5.5,3.4
					C113.1,56,116,55,120.2,54.6z"/>
				<path fill="#22B35F" d="M119.2,38c5-0.5,9.9,0,9.9,0c0,0-7.3-4.4-12.3-4.4c-5,0-6.2,2.3-6.1,4.3C110.7,39.9,114.2,38.6,119.2,38
					z"/>
				<path fill="#22B35F" d="M101.9,116.4c0.1,1.6,3.4,0.5,8.4,0.1c4.9-0.4,9.6,0,9.6,0c0,0-6.9-3.4-11.8-3.5
					C103.2,113,101.8,114.8,101.9,116.4z"/>
			</g>
			<path fill="#22B35F" d="M126.2,150.4c-1.5,0-3,0-4.5,0c-14.2-41.3,10.8-82.5,5.7-123.8c0.5-0.1,1-0.2,1.5-0.4
				C135,67.6,110.8,109,126.2,150.4z"/>
			<path fill="#22B35F" d="M129.2,27.1c0,0,7.4-4.2,5.3-7.6c-2-3.4-5.4,1.9-5.5,1.9c0.1-4-0.2-8.1-0.9-12.1c0.3,0-3.5,10.2-2.6,13.7
				c1.2,3.6,2.6,5,2.6,5C128.5,27.8,128.9,27.5,129.2,27.1z"/>
		</g>
		<g>
			<g>
				<path fill="#A3CE54" d="M112.6,100.9c-3.4-2-8.7-1.2-8.7-1.2c0,0,3.2,1.4,6.5,3.9c3.3,2.4,5.6,4.8,5.9,3.3
					C116.6,105.3,116,102.8,112.6,100.9z"/>
				<path fill="#A3CE54" d="M115.4,84.7c-3.1-2-8.2-1.2-8.2-1.2c0,0,3,1.4,6,3.9c3,2.4,5,4.8,5.4,3.3C119,89,118.6,86.6,115.4,84.7z
					"/>
				<path fill="#A3CE54" d="M120,71.4c0.3-1.2,0-3.1-2.3-4.7c-2.3-1.5-6.2-0.9-6.2-0.9c0,0,2.3,1.1,4.5,3
					C118.2,70.7,119.7,72.6,120,71.4z"/>
				<path fill="#A3CE54" d="M121.4,53.2c-3-2-7.7-1.2-7.7-1.2c0,0,2.9,1.5,5.8,3.9c2.9,2.4,4.7,4.9,5.1,3.3
					C124.9,57.7,124.4,55.2,121.4,53.2z"/>
				<path fill="#A3CE54" d="M109.5,118.2c-3-1.5-7.3-0.9-7.3-0.9c0,0,2.8,1.1,5.7,3c3,1.9,5,3.8,5.1,2.6
					C113.2,121.6,112.4,119.7,109.5,118.2z"/>
				<path fill="#A3CE54" d="M113.9,93.1c-3.6,0-9.4,3.7-9.4,3.7c0,0,3.5-0.5,7,0c3.5,0.5,5.8,1.5,6.1-0.1
					C118,95,117.5,93,113.9,93.1z"/>
				<path fill="#A3CE54" d="M117,76.8c-3.4,0-9.1,3.7-9.1,3.7c0,0,3.4-0.5,6.7,0c3.3,0.4,5.5,1.5,5.9-0.1
					C120.9,78.8,120.4,76.8,117,76.8z"/>
				<path fill="#A3CE54" d="M117.1,62.5c2.5,0.4,4.1,1.2,4.4-0.1c0.3-1.3-0.1-2.8-2.7-2.8c-2.6,0-6.7,2.9-6.7,2.9
					C112.1,62.5,114.6,62.2,117.1,62.5z"/>
				<path fill="#A3CE54" d="M120.4,48.8c3.1,0.5,5.1,1.5,5.4-0.1c0.2-1.7-0.4-3.6-3.6-3.6c-3.1,0-8,3.7-8,3.7
					C114.2,48.8,117.3,48.3,120.4,48.8z"/>
				<path fill="#A3CE54" d="M109.9,111.1c-3,0-7.5,2.9-7.5,2.9c0,0,2.9-0.4,5.8,0c2.9,0.4,4.9,1.2,5.1-0.1
					C113.5,112.6,112.9,111.1,109.9,111.1z"/>
			</g>
			<g>
				<path fill="#A3CE54" d="M93.4,104.9c-4.7,2-6.2,4.4-6.3,6c-0.1,1.6,3.2-0.8,8-3.3c4.7-2.4,9.1-3.9,9.1-3.9
					C104.2,103.8,98.2,103,93.4,104.9z"/>
				<path fill="#A3CE54" d="M96.9,88.7c-4.7,2-6.3,4.4-6.5,6c-0.2,1.6,3.2-0.8,7.9-3.3c4.7-2.4,9-3.9,9-3.9
					C107.2,87.6,101.5,86.7,96.9,88.7z"/>
				<path fill="#A3CE54" d="M97.8,75.5c-0.2,1.2,2.4-0.7,5.9-2.6c3.5-1.9,6.7-3,6.8-3c0,0-4.3-0.6-7.8,0.9
					C99.2,72.3,98,74.2,97.8,75.5z"/>
				<path fill="#A3CE54" d="M113,56.1c0,0-5.3-0.8-9.5,1.2c-4.2,2-5.7,4.4-6,6c-0.2,1.6,3-0.8,7.3-3.3C109.2,57.6,113,56.1,113,56.1
					z"/>
				<path fill="#A3CE54" d="M93.1,122.2c-3.7,1.5-4.6,3.5-4.5,4.7c0.1,1.2,2.5-0.7,6.2-2.6c3.6-1.9,7.1-3,7.1-3
					C101.8,121.3,96.8,120.7,93.1,122.2z"/>
				<path fill="#A3CE54" d="M89,100.7c-0.2,1.6,2.9,0.6,7.3,0.1c4.3-0.4,8.4,0,8.4,0c0,0-5.4-3.6-9.7-3.7
					C90.7,97.1,89.2,99.1,89,100.7z"/>
				<path fill="#A3CE54" d="M92.9,84.5c-0.3,1.6,2.8,0.6,6.9,0.1c4.2-0.4,8,0,8,0c0,0-5-3.6-9.1-3.7C94.7,80.9,93.2,82.8,92.9,84.5z
					"/>
				<path fill="#A3CE54" d="M105.1,66.6c3.1-0.4,6,0,6,0c0,0-3.8-2.9-6.8-2.9c-3.1,0-4.1,1.5-4.3,2.8C99.8,67.8,102,66.9,105.1,66.6
					z"/>
				<path fill="#A3CE54" d="M106.2,52.9c3.8-0.5,7.4,0,7.4,0c0,0-4.9-3.7-8.6-3.7c-3.7,0-5,1.9-5.1,3.6
					C99.6,54.4,102.3,53.3,106.2,52.9z"/>
				<path fill="#A3CE54" d="M89.1,118c0,1.3,2.5,0.4,6,0.1c3.5-0.4,6.9,0,6.9,0c0,0-4.8-2.9-8.3-2.9C90.1,115.2,89.1,116.7,89.1,118
					z"/>
			</g>
			<path fill="#A3CE54" d="M105.2,146.3c-1.1,0-2.1,0-3.2,0C93.8,112,111,77.7,114,43.4c0.4-0.1,0.8-0.2,1.2-0.3
				C112.8,77.5,96.1,111.9,105.2,146.3z"/>
			<path fill="#A3CE54" d="M113.6,43.3c0,0-5-5.1-3.4-7.5c1.6-2.4,3.9,2.8,3.9,2.8c0.2-3.4,0.5-6.8,1.1-10.2
				c-0.1,0,2.3,9.5,1.4,12.3c-1.1,2.8-2.3,3.6-2.3,3.6C114.1,44,113.9,43.7,113.6,43.3z"/>
		</g>
		<g>
			<path fill="#007444" d="M144.1,105.3c-2.9-1.8-7.1-1-7.1-1c0,0,2.7,1.3,5.6,3.5c2.9,2.2,4.9,4.4,5,2.9
				C147.7,109.3,147,107.1,144.1,105.3z"/>
			<path fill="#007444" d="M145.2,90.7c-2.7-1.8-6.8-1-6.8-1c0,0,2.5,1.3,5.2,3.5c2.6,2.2,4.4,4.3,4.6,2.9
				C148.4,94.7,147.9,92.5,145.2,90.7z"/>
			<path fill="#007444" d="M148.1,78.8c0.2-1.1-0.2-2.8-2.1-4.2c-2-1.4-5.1-0.8-5.1-0.8c0,0,1.9,1,3.8,2.7
				C146.6,78.2,147.9,79.9,148.1,78.8z"/>
			<path fill="#007444" d="M148.5,62.4c-2.5-1.8-6.3-1.1-6.3-1.1c0,0,2.4,1.3,4.8,3.5c2.4,2.2,4.1,4.4,4.3,3
				C151.5,66.4,151,64.2,148.5,62.4z"/>
			<path fill="#007444" d="M143.1,120.9c-2.5-1.4-5.9-0.8-5.9-0.8c0,0,2.4,1,4.9,2.7c2.6,1.7,4.4,3.4,4.4,2.3
				C146.4,124.1,145.7,122.3,143.1,120.9z"/>
			<path fill="#007444" d="M144.5,98.3c-2.9,0-7.3,3.3-7.3,3.3c0,0,2.8-0.4,5.7,0c2.9,0.4,4.8,1.4,5-0.1
				C148,100,147.4,98.3,144.5,98.3z"/>
			<path fill="#007444" d="M145.9,83.7c-2.8,0-7.2,3.3-7.2,3.3c0,0,2.7-0.4,5.5,0c2.7,0.4,4.5,1.4,4.8-0.1
				C149.2,85.4,148.7,83.6,145.9,83.7z"/>
			<path fill="#007444" d="M145.3,70.8c2.1,0.3,3.4,1.1,3.6-0.1c0.2-1.2-0.2-2.5-2.3-2.5c-2.1,0-5.4,2.6-5.4,2.6
				C141.2,70.8,143.2,70.4,145.3,70.8z"/>
			<path fill="#007444" d="M147.5,58.4c2.6,0.4,4.3,1.4,4.4-0.1c0.2-1.5-0.4-3.3-3-3.2c-2.6,0-6.5,3.3-6.5,3.3
				C142.4,58.4,145,58,147.5,58.4z"/>
			<path fill="#007444" d="M142.8,114.6c-2.4,0-5.8,2.6-5.8,2.6c0,0,2.3-0.3,4.7,0c2.4,0.3,4,1.1,4.1-0.1
				C145.9,115.9,145.2,114.5,142.8,114.6z"/>
		</g>
		<path fill="#007444" d="M129,109c-3.6,1.8-4.6,4-4.5,5.4c0.1,1.4,2.5-0.8,6.1-2.9c3.6-2.2,7-3.5,7-3.5
			C137.5,108,132.6,107.2,129,109z"/>
		<path fill="#007444" d="M130.4,94.4c-3.6,1.8-4.7,4-4.8,5.4c-0.1,1.4,2.5-0.8,6.1-2.9c3.6-2.2,7-3.5,7-3.5
			C138.7,93.3,134,92.6,130.4,94.4z"/>
		<path fill="#007444" d="M130.2,82.4c-0.1,1.1,1.9-0.6,4.7-2.3c2.8-1.7,5.3-2.7,5.3-2.7c0,0-3.5-0.6-6.3,0.8
			C131.2,79.6,130.3,81.3,130.2,82.4z"/>
		<path fill="#007444" d="M141.7,65c0,0-4.4-0.7-7.8,1.1c-3.4,1.8-4.5,4-4.6,5.4c-0.1,1.4,2.4-0.8,5.8-3
			C138.6,66.3,141.7,65,141.7,65z"/>
		<path fill="#007444" d="M125,105.2c0,1.5,2.4,0.5,5.9,0.1c3.5-0.4,6.8,0,6.8,0c0,0-4.7-3.3-8.2-3.3
			C126.1,101.9,125,103.7,125,105.2z"/>
		<path fill="#007444" d="M126.8,90.5c-0.1,1.5,2.3,0.5,5.6,0.1c3.4-0.4,6.5,0,6.5,0c0,0-4.3-3.3-7.7-3.3
			C128,87.3,127,89.1,126.8,90.5z"/>
		<path fill="#007444" d="M135.7,74.4c2.5-0.3,4.9,0,4.9,0c0,0-3.2-2.6-5.7-2.6c-2.5,0-3.3,1.4-3.4,2.5
			C131.3,75.5,133.2,74.7,135.7,74.4z"/>
		<path fill="#007444" d="M135.9,62c3.1-0.4,6.1,0,6.1,0c0,0-4.1-3.3-7.2-3.3c-3.1,0-4,1.7-4.1,3.2C130.6,63.4,132.8,62.4,135.9,62z
			"/>
		<path fill="#007444" d="M126.7,120.8c0.1,1.2,2,0.4,4.8,0.1c2.8-0.3,5.6,0,5.6,0c0,0-4.2-2.6-7-2.6
			C127.2,118.2,126.5,119.6,126.7,120.8z"/>
		<path fill="#007444" d="M142.6,146.3c-0.8,0-1.7,0-2.5,0c-10.3-30.9,0.1-61.9,2.1-92.8c0.3-0.1,0.7-0.2,1-0.3
			C141.6,84.2,131.6,115.2,142.6,146.3z"/>
		<path fill="#007444" d="M143.4,55.8c0,0,5.1-3.2,4.4-5.7c-0.7-2.5-3.7,1.5-3.7,1.5c0.6-3,1.2-6.1,1.6-9.1c0.1,0-4.2,7.6-4,10.3
			c0.3,2.7,1,3.7,1,3.7C142.8,56.3,143.1,56,143.4,55.8z"/>
	</g>
	<g>
		<path fill="#F9EBC1" d="M45.1,218.4c0,0,31.9-30.6,84-25.1c52.1,5.5,70.1,25.1,70.1,25.1H45.1z"/>
		<path fill="#632015" d="M57.5,169.2c0,0-21.3-31.7-7.8-50.9c13.4-19.3,31.1-15.7,31.1-15.7l77.4,13.2l0.7,2.8L57.5,169.2z"/>
		<g>
			<defs>
				<path id="SVGID_8_" d="M57.5,169.2c0,0-21.3-31.7-7.8-50.9c13.4-19.3,31.1-15.7,31.1-15.7l77.4,13.2l0.7,2.8L57.5,169.2z"/>
			</defs>
			<clipPath id="SVGID_1_">
				<use xlink:href="#SVGID_8_"  overflow="visible"/>
			</clipPath>
			<path clip-path="url(#SVGID_1_)" fill="#90392E" d="M81.1,157.4l77.8-38.8l-0.7-2.8l-77.4-13.2c0,0-0.1,0-0.3,0
				c-0.5,3.2-0.7,6.4-0.7,9.6c0,0.3-0.2,0.5-0.4,0.6C79.6,127.7,80.8,142.5,81.1,157.4z"/>
			<path clip-path="url(#SVGID_1_)" fill="#672217" d="M65,97.2c-1.5,5.2-3,10.4-4.6,15.6c-1.5,5.2-3.1,10.4-4.7,15.6
				c-1.6,5.2-3.1,10.4-4.8,15.6c-1.6,5.2-3.2,10.4-4.9,15.5l-0.2-0.9l6.4,6l-1.4,0.3l6.7-16.9c2.3-5.6,4.5-11.2,6.8-16.8l6.9-16.8
				c2.3-5.6,4.6-11.2,7-16.7c-2,5.7-4.2,11.4-6.2,17l-6.4,17c-2.1,5.7-4.3,11.3-6.5,17l-6.6,16.9l-0.5,1.2l-0.9-0.9l-6.4-6l-0.4-0.4
				l0.2-0.5c1.6-5.2,3.3-10.3,5-15.5c1.7-5.2,3.4-10.3,5.1-15.5c1.7-5.1,3.4-10.3,5.1-15.4C61.5,107.4,63.2,102.3,65,97.2z"/>
		</g>
		<polygon fill="#410300" points="80.8,106.2 57.5,169.2 137,165.6 158.9,118.6 		"/>
		<g>
			<path fill="#632015" d="M95.7,136.7C95.6,136.7,95.6,136.7,95.7,136.7C95.6,136.7,95.6,136.7,95.7,136.7z"/>
			<path fill="#280000" d="M84.9,106.8l-1.3,5.6l-0.7,23c0,0,4.2-4.4,9.5-2.4c4.9,1.9,3.4,3.4,3.2,3.6c0.6-0.5,13.1-10.7,31.1-6.4
				c11.4,2.7,17.2,9.6,20,14.5l12.2-26.1L84.9,106.8z"/>
		</g>
		<polygon fill="#90392E" points="86.4,103.6 61.1,169 57.5,169.2 80.8,102.6 		"/>
		<polygon fill="#90392E" points="156,117.4 140.8,147.9 146.1,148.4 158.9,118.6 157.9,116 		"/>
		<g>
			<polygon fill="#D70F52" points="96.3,137.7 93.4,137.9 92.3,146.3 101.8,146.5 102.3,143.4 			"/>
			<g>
				<polygon fill="#9D0039" points="92.5,146.3 94.4,146.3 99.7,145 97.4,143 				"/>
				<polygon fill="#EC145A" points="94,138.8 97.1,142.4 99.4,140.6 97,138.3 				"/>
			</g>
		</g>
		<path fill="#DCA338" d="M161.9,150.7c-0.9,0-1.8,0.2-2.6,0.6c-0.6-1.6-1.8-2.9-3.4-3.5c-0.9-1.9-2.9-3.2-5.2-3.3
			c-1-1.9-2.9-3.2-5.2-3.2c-2.5,0-4.7,1.6-5.5,3.9c-0.6-0.2-1.2-0.3-1.9-0.3c-0.8,0-1.6,0.2-2.3,0.5c-1.1-1-2.5-1.7-4.1-1.7
			c-0.4,0-0.8,0-1.2,0.1c-1.1-1.5-2.8-2.5-4.8-2.5c-0.7,0-1.5,0.1-2.1,0.4c-0.4-2.8-2.9-4.9-5.8-4.9c-2.3,0-4.3,1.3-5.3,3.3
			c-0.9-0.6-2-0.9-3.1-0.9c-3.1,0-5.7,2.4-5.8,5.5c-1.4,0.1-2.6,0.7-3.5,1.6c-0.9-1-2.3-1.7-3.7-1.9c-0.7-2.4-3-4.1-5.6-4.1
			c-1.4,0-2.7,0.5-3.7,1.3c-1.1-1.2-2.7-2-4.4-2c-2.8,0-5.1,2-5.7,4.6c-0.2,0-0.5-0.1-0.7-0.1c-3.2,0-5.9,2.6-5.9,5.9
			c0,0.4,0,0.8,0.1,1.2c-2.1,0.7-3.6,2.6-3.9,4.8c-2.3,0.8-3.9,3-3.9,5.5c0,3.2,2.6,5.9,5.9,5.9c3,0,5.4-2.2,5.8-5.1
			c0.7-0.3,1.4-0.6,1.9-1.1c0.9,0.6,2.1,1,3.3,1c3.2,0,5.9-2.6,5.9-5.9c0,0,0-0.1,0-0.1c0.5,0.1,1,0.2,1.6,0.2
			c1.8,0,3.5-0.8,4.5-2.1c1.1,1.2,2.6,1.9,4.3,1.9c1.6,0,3-0.6,4.1-1.6c1.1,1.2,2.6,1.9,4.3,1.9c1.7,0,3.2-0.7,4.3-1.9
			c1,0.9,2.4,1.4,3.8,1.4c1.7,0,3.2-0.7,4.2-1.8c1,0.7,2.1,1.1,3.4,1.1c1.9,0,3.5-0.9,4.6-2.3c0.4,0.1,0.7,0.1,1.1,0.1
			c0.4,0,0.8,0,1.2-0.1c1.1,1.5,2.8,2.5,4.8,2.5c0.8,0,1.6-0.2,2.3-0.5c1.1,1,2.5,1.7,4.1,1.7c1.2,0,2.3-0.4,3.2-1
			c1.1,1.5,2.8,2.5,4.8,2.5c1.2,0,2.3-0.4,3.3-1c1.1,1.2,2.6,2,4.4,2c0.9,0,1.8-0.2,2.6-0.6c0.8,2.3,3,4,5.5,4
			c3.2,0,5.9-2.6,5.9-5.9C167.8,153.4,165.1,150.7,161.9,150.7z"/>
		<g>
			<polygon fill="#D70F52" points="145.5,151.7 146,153.8 152.3,153.6 151.2,146.6 148.9,146.6 			"/>
			<g>
				<polygon fill="#EC145A" points="152.2,153.4 152,152 150.4,148.3 149.2,150.2 				"/>
				<polygon fill="#9D0039" points="146.6,153.3 148.8,150.5 147.2,149.1 145.9,151.1 				"/>
			</g>
		</g>
		<g>
			<polygon fill="#00A782" points="135.8,140.7 133.7,141.2 133.8,147.4 140.8,146.5 140.8,144.2 			"/>
			<g>
				<polygon fill="#00662C" points="134,147.4 135.4,147.2 139.1,145.6 137.2,144.4 				"/>
				<polygon fill="#97CF99" points="134.2,141.8 136.9,144 138.3,142.4 136.4,141.1 				"/>
			</g>
		</g>
		<g>
			<ellipse fill="#FFD63F" cx="85.3" cy="150.6" rx="4.9" ry="5.3"/>
			<ellipse fill="#FFD63F" cx="74.3" cy="159" rx="3.9" ry="4.3"/>
			<ellipse fill="#FFD63F" cx="110.9" cy="150.9" rx="4.4" ry="5.7"/>
			<ellipse fill="#FFD63F" cx="104.3" cy="153.1" rx="4.3" ry="4.7"/>
			<circle fill="#FFD63F" cx="126.9" cy="151.2" r="5.9"/>
			<ellipse fill="#FFD63F" cx="142.7" cy="155" rx="4.9" ry="5.1"/>
			<circle fill="#FFD63F" cx="136.3" cy="152.5" r="4.5"/>
			<circle fill="#FFD63F" cx="155.1" cy="155.3" r="4.2"/>
		</g>
		<polygon fill="#90392E" points="165,208.5 94.4,208.5 84.3,150.5 173.6,158.4 		"/>
		<polygon fill="#672217" points="58.2,169.4 84.3,150.5 94.4,208.5 71.1,206.8 		"/>
		<g>
			<polygon fill="#672217" points="166.7,198.7 159.8,198 159.7,199.4 166.4,200.1 			"/>
			<polygon fill="#672217" points="171.3,171.5 171.6,170 163.4,170.2 161.3,186.7 168.7,187.2 168.9,185.7 163,185.3 164.7,171.6 
							"/>
		</g>
		<g>
			<defs>
				<polygon id="SVGID_10_" points="84.3,150.5 58.2,169.4 71.1,206.8 94.4,208.5 165,208.5 173.6,158.4 				"/>
			</defs>
			<clipPath id="SVGID_3_">
				<use xlink:href="#SVGID_10_"  overflow="visible"/>
			</clipPath>
			<path clip-path="url(#SVGID_3_)" fill="#672217" d="M59.6,179.3c2.2-1.3,4.4-2.7,6.7-4l6.7-4l6.7-3.9l6.7-3.9l0.2-0.1l0.2,0
				l7.8,0.9l0.5,0.1l0.1,0.5l2.1,14.9l0.2,1.1l-1.1-0.2l-7.8-1.3l0.5-0.1c-4.4,2-8.8,4-13.2,5.9c-4.4,2-8.8,3.9-13.3,5.9l0.5-0.8
				l1.6,11.9l-0.9-0.6c4.6-1.2,9.2-2.4,13.8-3.5c4.6-1.2,9.2-2.3,13.8-3.5l0,0l0,0c2.7,0,5.4,0.1,8.1,0.2c-2.7,0.1-5.4,0.2-8.1,0.2
				l0.1,0c-4.6,1.3-9.1,2.7-13.7,4c-4.6,1.3-9.1,2.6-13.7,3.9l-0.7,0.2l-0.1-0.8l-1.8-11.9l-0.1-0.6l0.5-0.2c4.4-2,8.8-4,13.2-6
				c4.4-2,8.8-4,13.2-5.9l0.2-0.1l0.3,0l7.8,1.4l-1,0.9l-1.9-14.9l0.6,0.6l-7.8-1.1l0.4-0.1l-6.8,3.7l-6.9,3.7l-6.9,3.7
				C64.2,176.9,61.9,178.1,59.6,179.3z"/>
		</g>
		<polygon fill="#AD473B" points="160.7,208.5 167.4,157.8 90.4,151 99.3,208.5 		"/>
		<g>
			<defs>
				<polygon id="SVGID_12_" points="160.7,208.5 167.4,157.8 90.4,151 99.3,208.5 				"/>
			</defs>
			<clipPath id="SVGID_5_">
				<use xlink:href="#SVGID_12_"  overflow="visible"/>
			</clipPath>
			<path clip-path="url(#SVGID_5_)" fill="#672217" d="M90.4,166.7c6.5,0.1,13,0.3,19.4,0.4c6.5,0.2,13,0.3,19.4,0.5l19.4,0.5
				c6.5,0.2,12.9,0.3,19.4,0.6l0.8,0l-0.1,0.8l-1.7,16.3l-0.1,0.7l-0.7,0l-18.4-1c-6.1-0.3-12.3-0.6-18.4-1l-36.8-2.1l0.8-0.9
				c0.9,5.1,1.8,10.2,2.7,15.3l-0.7-0.6l34.3-0.4l17.1-0.1c5.7,0,11.4-0.1,17.1-0.1c-5.7,0.2-11.4,0.4-17.1,0.6l-17.1,0.5l-34.3,0.9
				l-0.6,0l-0.1-0.6c-0.9-5.1-1.8-10.2-2.8-15.3l-0.2-0.9l1,0l36.8,1.9c6.1,0.3,12.3,0.7,18.4,1l18.4,1.1l-0.8,0.7l1.7-16.3l0.7,0.8
				c-6.5-0.2-12.9-0.5-19.4-0.8l-19.4-0.8c-6.5-0.3-12.9-0.6-19.4-0.9C103.4,167.4,96.9,167.1,90.4,166.7z"/>
		</g>
		<path fill="#B1842B" d="M130,150c-10.5-1-9.8,7.8-9.8,7.8l5.1,3.7l-1,12.9l10.9,0.7l-1.7-12.5l5.4-3.4
			C138.8,159.2,140.5,151,130,150z"/>
		<path fill="#DCA338" d="M131.8,150.1c-10.5-1-9.8,7.8-9.8,7.8l5.1,3.7l-1,12.9l10.9,0.7l-1.7-12.5l5.4-3.4
			C140.6,159.3,142.3,151.1,131.8,150.1z"/>
		<ellipse fill="#B1842B" cx="131.5" cy="157.5" rx="3.1" ry="3.8"/>
		<path fill="#4F3800" d="M130.3,154c-1.1,0.6-1.9,1.9-1.9,3.5c0,1.9,1.1,3.4,2.5,3.8c1.1-0.6,1.9-1.9,1.9-3.5
			C132.8,155.9,131.7,154.3,130.3,154z"/>
		<polygon fill="#4F3800" points="130.2,160.6 128.9,171 133.7,171.4 132.2,161 		"/>
		<polygon fill="#B1842B" points="131.3,160.7 132,171.3 133.7,171.4 132.6,160.4 131.4,160.7 		"/>
		<path fill="#4E1103" d="M67.2,179.5c2.2-1.4,4.6-2.5,7-3.6c2.4-1,4.9-2,7.2-3.1l0.3,0.5c-1.3,0.7-2.5,1.5-3.8,2.3l-3.7,2.3
			c-1.3,0.8-2.5,1.5-3.8,2.2c-1.3,0.7-2.6,1.4-3.9,2c1.3-0.7,2.6-1.4,3.8-2.2c1.2-0.8,2.5-1.6,3.7-2.4l3.7-2.4
			c1.2-0.8,2.5-1.6,3.8-2.3l0.3,0.5c-2.4,1.1-4.9,2.1-7.3,3C72,177.3,69.6,178.3,67.2,179.5z"/>
		<path fill="#4E1103" d="M85.6,184.3c-0.9,1-2.2,1.6-3.5,2.2c-1.3,0.6-2.5,1.1-3.8,1.5c-0.6,0.2-1.3,0.5-1.9,0.8
			c-0.6,0.3-1.2,0.6-1.8,0.9c-1.2,0.6-2.4,1.2-3.6,1.9l-0.1-0.5c1.2,0.2,2.5,0.1,3.7-0.1c1.2-0.2,2.5-0.6,3.7-1
			c1.2-0.4,2.4-0.8,3.7-1.1c1.2-0.3,2.5-0.6,3.8-0.6l0.6,0l-0.4,0.4c-0.9,1-2,2-3.1,2.8c-1.1,0.8-2.3,1.5-3.6,2.2
			c-1.2,0.6-2.5,1.2-3.8,1.7c-1.3,0.5-2.7,0.9-3.8,1.7c1-0.9,2.4-1.4,3.7-1.9c0.6-0.3,1.3-0.6,1.9-0.9c0.6-0.3,1.2-0.6,1.8-1
			c2.4-1.3,4.7-3,6.5-5l0.2,0.4c-1.3,0-2.5,0.3-3.7,0.6c-1.2,0.3-2.4,0.7-3.7,1.1c-1.2,0.4-2.5,0.7-3.7,1c-1.3,0.2-2.6,0.3-3.9,0.1
			l-0.7-0.1l0.6-0.4c1.2-0.7,2.4-1.3,3.7-1.9c0.6-0.3,1.2-0.6,1.9-0.9c0.6-0.3,1.3-0.5,1.9-0.7c1.3-0.5,2.6-0.9,3.9-1.4
			C83.4,185.8,84.6,185.3,85.6,184.3z"/>
		<path fill="#4E1103" d="M70.1,163c-0.7,0.7-1.5,1.2-2.3,1.8c-0.8,0.6-1.6,1.1-2.3,1.7c-0.7,0.6-1.5,1.2-2.1,1.9
			c-0.6,0.7-1,1.6-1,2.5l-0.2-0.2c1.5,0.1,3-0.1,4.4-0.3c1.5-0.2,2.9-0.5,4.4-0.9c1.4-0.4,2.8-0.9,4.2-1.6c1.3-0.7,2.6-1.5,3.5-2.6
			l0.2,0.4c-1.5-0.3-3.1-0.1-4.6,0.3c-1.5,0.4-3,1-4.4,1.7l-0.3-0.4c2.1-1.5,4.4-2.9,6.6-4.2l1.7-1c0.6-0.3,1.1-0.7,1.6-1.1
			c0.5-0.4,1.1-0.8,1.6-1.1c0.3-0.2,0.6-0.3,0.8-0.5c0.3-0.1,0.6-0.3,0.9-0.3c-0.3,0-0.6,0.2-0.9,0.3c-0.3,0.2-0.6,0.3-0.8,0.5
			c-0.5,0.4-1,0.8-1.6,1.2c-0.5,0.4-1.1,0.8-1.6,1.1c-0.5,0.4-1.1,0.7-1.6,1.1c-2.2,1.4-4.4,2.8-6.5,4.3l-0.3-0.4
			c1.4-0.7,2.9-1.3,4.4-1.8c1.5-0.4,3.2-0.7,4.8-0.4l0.5,0.1l-0.3,0.4c-1,1.2-2.3,2.1-3.7,2.7c-1.4,0.7-2.8,1.2-4.3,1.6
			c-1.5,0.4-2.9,0.7-4.4,0.9c-1.5,0.2-3,0.3-4.5,0.2l-0.2,0v-0.2c0-1,0.5-2,1.2-2.7c0.6-0.7,1.4-1.4,2.2-1.9
			c0.8-0.6,1.6-1.1,2.4-1.6C68.6,164.2,69.4,163.7,70.1,163z"/>
		<path opacity="0.2" fill="#672217" d="M97.4,177.6c2.5-0.1,5-0.2,7.6-0.3c2.5-0.1,5-0.2,7.6-0.4c2.5-0.1,5-0.2,7.6-0.3
			c2.5-0.1,5.1,0.1,7.6,0.2c5,0.3,10.1,0.6,15.1,1c5,0.3,10.1,0.7,15.1,0.9l0.1,1.1c-1.6,0.2-3,0.2-4.5,0.2c-1.5,0-3-0.1-4.5-0.2
			c-3-0.1-5.9-0.3-8.9-0.5c-3-0.2-5.9-0.3-8.9-0.4c-1.5,0-3,0-4.4,0.2c-0.7,0.1-1.4,0.3-2.1,0.5c-0.7,0.2-1.4,0.4-1.8,0.8l-0.3-0.8
			c4.3,0.3,8.6,0.8,12.9,1.2c2.1,0.2,4.3,0.4,6.4,0.6c2.1,0.2,4.3,0.3,6.4,0.4c-2.2,0.1-4.3,0-6.5-0.1c-2.2-0.1-4.3-0.2-6.5-0.4
			c-4.3-0.3-8.6-0.7-12.9-0.8l-1.1,0l0.8-0.7c0.7-0.6,1.4-0.8,2.2-1.1c0.7-0.2,1.5-0.4,2.2-0.5c1.5-0.2,3-0.2,4.5-0.3
			c3,0,6,0.2,8.9,0.3c3,0.2,5.9,0.3,8.9,0.5c1.5,0.1,3,0.1,4.4,0.1c1.5,0,3,0,4.4-0.2l0.1,1.1c-2.6,0-5.1-0.2-7.6-0.4l-7.6-0.5
			c-5-0.4-10.1-0.7-15.1-1c-2.5-0.1-5-0.3-7.5-0.3l-7.6,0c-2.5,0-5,0.1-7.6,0.1C102.4,177.7,99.9,177.8,97.4,177.6z"/>
		<polygon fill="#DCA338" points="105.6,208.5 115.4,208.5 109.4,152.7 98.5,151.7 		"/>
		<polygon fill="#DCA338" points="148.9,208.5 156.1,208.5 164.1,157.5 153.7,156.6 		"/>
		<path opacity="0.2" fill="#672217" d="M140.6,189.7c0,0.4-0.3,0.7-0.6,0.9c-0.3,0.2-0.7,0.4-1,0.5c-0.7,0.3-1.4,0.5-2.2,0.7
			c-1.5,0.4-3,0.6-4.5,0.7c-3,0.3-6,0.2-9-0.2c-0.8-0.1-1.5-0.2-2.2-0.4c-0.7-0.2-1.5-0.4-2.2-0.8c-0.4-0.2-0.7-0.4-1.1-0.9
			c-0.1-0.1-0.1-0.3-0.2-0.5c0,0,0-0.1,0-0.1l0,0l0-0.1l0,0c0,0,0-0.1,0-0.1c0-0.1,0-0.1,0-0.1c0.1-0.3,0.3-0.5,0.5-0.7
			c0.7-0.6,1.5-0.8,2.2-1c1.5-0.4,3-0.5,4.5-0.6c1.5-0.1,3-0.1,4.5,0.1c-1.5,0.1-3,0.3-4.4,0.5c-1.5,0.2-2.9,0.5-4.3,0.9
			c-0.7,0.2-1.4,0.5-1.8,0.9c-0.1,0.1-0.2,0.2-0.2,0.2c0,0,0,0,0,0c0,0,0,0,0,0l0,0v0c0,0,0-0.1,0,0l0,0c0,0,0,0,0,0c0,0,0,0,0,0.1
			c0.1,0.1,0.4,0.3,0.7,0.5c1.2,0.6,2.7,0.8,4.2,1c1.4,0.2,2.9,0.3,4.4,0.4c1.5,0.1,2.9,0.1,4.4,0c1.5-0.1,2.9-0.1,4.4-0.4
			c0.7-0.1,1.5-0.2,2.2-0.4c0.4-0.1,0.7-0.2,1-0.4C140.2,190.3,140.6,190.1,140.6,189.7z"/>
		<path opacity="0.2" fill="#672217" d="M129.6,201.5c0-0.3,0.3-0.5,0.5-0.6c0.2-0.1,0.5-0.2,0.7-0.3c0.5-0.2,1-0.3,1.5-0.4
			c1-0.2,2.1-0.2,3.1-0.2c2.1,0,4.2,0.2,6.2,0.7c1,0.3,2,0.5,3,1.2c0.2,0.2,0.5,0.3,0.7,0.8c0.1,0.1,0.1,0.2,0.1,0.4l0,0.1l0,0
			l0,0.1l0,0l0,0c0,0,0,0.1,0,0.2c-0.1,0.3-0.3,0.4-0.4,0.5c-0.6,0.4-1.1,0.4-1.7,0.5c-2.1,0.3-4.2,0-6.2-0.4c2.1,0,4.1-0.1,6.1-0.5
			c0.5-0.1,1-0.3,1.2-0.5c0.1,0,0.1-0.1,0.1,0c0,0,0,0,0,0l0,0l0,0c0,0,0,0.1,0,0.1l0,0c0,0,0,0,0,0c0,0,0,0,0,0
			c0,0-0.2-0.2-0.4-0.3c-0.8-0.4-1.8-0.7-2.7-1c-2-0.5-4-0.7-6-0.9c-1-0.1-2-0.1-3-0.1c-0.5,0-1,0-1.5,0.1c-0.2,0-0.5,0.1-0.7,0.2
			C129.9,201.1,129.7,201.3,129.6,201.5z"/>
		<path fill="#B1842B" d="M114.3,143c0.1-0.7,0.7-1.2,1.4-1.4c0.7-0.2,1.4-0.2,2.1,0c0.7,0.2,1.3,0.8,1.6,1.4
			c0.3,0.6,0.4,1.3,0.3,1.9c-0.3-0.6-0.6-1-1-1.4c-0.4-0.4-0.8-0.6-1.2-0.8c-0.5-0.2-1-0.3-1.5-0.2
			C115.4,142.4,114.8,142.6,114.3,143z"/>
		<path fill="#B1842B" d="M91.7,148.3c-0.2-0.6,0.2-1.4,0.7-1.8c0.6-0.5,1.2-0.7,1.9-0.7c0.7,0,1.5,0.2,2,0.7c0.5,0.5,0.9,1,1,1.7
			c-0.5-0.4-1-0.7-1.5-0.9c-0.5-0.2-1-0.3-1.4-0.3c-0.5,0-1,0.1-1.5,0.3C92.5,147.4,92,147.8,91.7,148.3z"/>
		<path fill="#B1842B" d="M73,151.7c-0.4-0.5-0.3-1.3,0-2c0.3-0.6,0.9-1.1,1.5-1.4c0.7-0.3,1.4-0.3,2.1-0.1c0.6,0.2,1.2,0.7,1.5,1.2
			c-0.6-0.2-1.2-0.3-1.7-0.3c-0.5,0-1,0.1-1.4,0.3c-0.4,0.2-0.9,0.5-1.3,0.9C73.4,150.6,73.1,151,73,151.7z"/>
		<path fill="#B1842B" d="M79.4,144.8c-0.1-0.7,0.3-1.4,0.8-1.8c0.6-0.4,1.3-0.6,2-0.6c0.7,0,1.4,0.3,1.9,0.8
			c0.5,0.5,0.8,1.1,0.9,1.7c-0.5-0.4-0.9-0.8-1.4-1c-0.5-0.3-0.9-0.4-1.4-0.4c-0.5,0-1,0.1-1.5,0.2
			C80.2,143.9,79.7,144.2,79.4,144.8z"/>
		<circle fill="#AEDFE8" cx="103.2" cy="143.9" r="1.5"/>
		<ellipse fill="#E5F2EA" cx="103.5" cy="143.9" rx="1.1" ry="1.5"/>
		<circle fill="#AEDFE8" cx="104" cy="146.5" r="1.5"/>
		<ellipse fill="#E5F2EA" cx="104.4" cy="146.5" rx="1.1" ry="1.5"/>
		<circle fill="#AEDFE8" cx="102.9" cy="149" r="1.5"/>
		<ellipse fill="#E5F2EA" cx="103.2" cy="149" rx="1.1" ry="1.5"/>
		<path fill="#B1842B" d="M105.9,167.9c0.4-0.3,0.7-0.7,0.7-1.2c0-0.7-0.5-1.3-1.2-1.5c0.1-0.2,0.1-0.4,0.1-0.6c0-0.6-0.3-1-0.8-1.3
			c0.2-0.3,0.3-0.6,0.3-0.9c0-0.2-0.1-0.5-0.2-0.7c0.6-0.2,1.1-0.7,1.1-1.4c0-0.3-0.1-0.7-0.3-0.9c0.7-0.1,1.3-0.7,1.3-1.5
			c0-0.5-0.3-1-0.6-1.2c0.2-0.3,0.4-0.6,0.4-1c0-0.8-0.7-1.5-1.5-1.5c0,0-0.1,0-0.1,0c0.1-0.2,0.1-0.4,0.1-0.6
			c0-0.8-0.6-1.4-1.3-1.5c0.1-0.2,0.2-0.5,0.2-0.7c0-0.8-0.7-1.5-1.5-1.5c-0.8,0-1.5,0.7-1.5,1.5c0,0.8,0.6,1.4,1.3,1.5
			c-0.1,0.2-0.2,0.5-0.2,0.7c0,0.8,0.7,1.5,1.5,1.5c0,0,0.1,0,0.1,0c-0.1,0.2-0.1,0.4-0.1,0.6c0,0.5,0.3,1,0.6,1.2
			c-0.2,0.3-0.4,0.6-0.4,1c0,0.3,0.1,0.6,0.3,0.9c-0.7,0.1-1.3,0.7-1.3,1.5c0,0.2,0.1,0.5,0.2,0.7c-0.6,0.2-1.1,0.7-1.1,1.4
			c0,0.6,0.3,1,0.8,1.3c-0.2,0.3-0.3,0.6-0.3,0.9c0,0.7,0.5,1.3,1.2,1.5c-0.1,0.2-0.1,0.4-0.1,0.6c0,0.6,0.4,1.2,0.9,1.4
			c-0.4,0.3-0.7,0.7-0.7,1.3c0,0.8,0.7,1.5,1.5,1.5c0.8,0,1.5-0.7,1.5-1.5C106.8,168.6,106.4,168.1,105.9,167.9z"/>
		<circle fill="#AEDFE8" cx="103.1" cy="151.4" r="1.5"/>
		<ellipse fill="#E5F2EA" cx="103.4" cy="151.4" rx="1.1" ry="1.5"/>
		<circle fill="#AEDFE8" cx="104.2" cy="153.6" r="1.5"/>
		<ellipse fill="#E5F2EA" cx="104.6" cy="153.6" rx="1.1" ry="1.5"/>
		<circle fill="#AEDFE8" cx="105.7" cy="155.7" r="1.5"/>
		<ellipse fill="#E5F2EA" cx="106.1" cy="155.7" rx="1.1" ry="1.5"/>
		<circle fill="#AEDFE8" cx="106" cy="157.9" r="1.5"/>
		<ellipse fill="#E5F2EA" cx="106.3" cy="157.9" rx="1.1" ry="1.5"/>
		<circle fill="#AEDFE8" cx="105" cy="160.3" r="1.5"/>
		<ellipse fill="#E5F2EA" cx="105.4" cy="160.3" rx="1.1" ry="1.5"/>
		<circle fill="#AEDFE8" cx="104" cy="162.4" r="1.5"/>
		<ellipse fill="#E5F2EA" cx="104.4" cy="162.4" rx="1.1" ry="1.5"/>
		<circle fill="#AEDFE8" cx="104.5" cy="164.6" r="1.5"/>
		<ellipse fill="#E5F2EA" cx="104.8" cy="164.6" rx="1.1" ry="1.5"/>
		<circle fill="#AEDFE8" cx="105.5" cy="166.6" r="1.5"/>
		<ellipse fill="#E5F2EA" cx="105.9" cy="166.6" rx="1.1" ry="1.5"/>
		<circle fill="#AEDFE8" cx="105.8" cy="169.3" r="1.5"/>
		<ellipse fill="#E5F2EA" cx="106.1" cy="169.3" rx="1.1" ry="1.5"/>
		<path fill="#F9EBC1" d="M84.5,211.9c0,0,19.2-9.4,50.7-7.8c31.5,1.7,42.3,7.8,42.3,7.8H84.5z"/>
		<circle fill="#D4C78E" cx="70" cy="209.4" r="1"/>
		<circle fill="#D4C78E" cx="76" cy="212.7" r="0.9"/>
		<circle fill="#D4C78E" cx="111.3" cy="211.7" r="1.5"/>
		<circle fill="#D4C78E" cx="134" cy="209.3" r="0.8"/>
		<circle fill="#D4C78E" cx="139.2" cy="212.1" r="1.4"/>
		<circle fill="#D4C78E" cx="189.5" cy="209.8" r="1.9"/>
		<circle fill="#D4C78E" cx="181.1" cy="212.5" r="0.7"/>
	</g>
	<g>
		<path fill="#D4C78E" d="M127.6,229.2C127.6,229.3,127.6,229.2,127.6,229.2C127.6,229.2,127.6,229.2,127.6,229.2c0-0.1,0-0.1,0-0.2
			c0,0,0,0,0-0.1c0,0,0-0.1,0-0.1c0,0,0-0.1,0-0.1c0,0,0-0.1,0-0.1c0,0,0-0.1,0-0.2c0,0,0-0.1,0-0.1c0-0.1,0-0.2,0-0.3
			c0,0,0-0.1,0-0.1c0-0.1,0-0.2,0-0.2l0,0c-0.2-3.4-0.8-12.1-3.1-18.1c-0.3-1.1-0.6-2.2-1-3.3c-0.4-1.1-0.9-2.1-1.4-3.2
			c-0.5-1-1.1-2-1.8-3c-0.3-0.5-0.7-1-1-1.4c-0.4-0.5-0.7-0.9-1.2-1.4l-0.4-0.4l-0.6,0.3c-1.4,0.7-2.9,1.4-4.4,1.9
			c-1.5,0.5-3.1,0.9-4.6,0.8c-0.8,0-1.5-0.2-2.2-0.5c-0.7-0.4-1.4-0.7-2.1-1.2c-0.7-0.5-1.3-1-1.9-1.6c-0.6-0.6-1.1-1.2-1.5-2
			c0,0-2.3-0.4-4.8,3.6l-5.9-1.6c0,0-1.5,0.7-3.2,3l-4.6-0.9c0,0-1.2,1-2.1,2.9c-1.2,0.4-2.6,1-2.9,2.1c-0.6,2.1-0.3,3.2-0.3,3.2
			l2.6,2.4c0.5,1.8,1.2,2.8,1.2,2.8l2.2,0.9c0,2.3,0.3,3.8,0.3,3.8l4.7,2c0,0.1-0.1,0.2-0.1,0.3c0,0.1,0,0.1-0.1,0.2
			c0,0.1-0.1,0.3-0.1,0.4c0,0.1,0,0.1-0.1,0.2c0,0.1-0.1,0.3-0.1,0.4c0,0.1,0,0.1-0.1,0.2c0,0.1-0.1,0.2-0.1,0.3c0,0,0,0.1,0,0.1
			c0,0.1-0.1,0.2-0.1,0.3c0,0,0,0.1,0,0.1c0,0.1-0.1,0.2-0.1,0.2c0,0,0,0.1,0,0.1c0,0.1,0,0.1-0.1,0.2c0,0.1-0.1,0.2-0.1,0.3
			c0,0.1,0,0.1,0,0.1s2.4,1.2,5.8,3c3.4,1.8,11.1-3.5,18.6,0.5c7.5,3.9,11.7,8.4,11.7,8.4l3.8-5
			C126.3,229.3,127.3,227.7,127.6,229.2z"/>
		<g>
			<path fill="#EAAA56" d="M83.4,198.9c0,0-4.3,0.4-4.9,2.5c-0.6,2.1-0.3,3.2-0.3,3.2l3.8,3.4L83.4,198.9z"/>
			<path fill="#FFCC80" d="M91.4,197.8l-7.8-1.5c0,0-2.7,2.3-3.1,6.4c-0.4,4.1,1.6,7,1.6,7l4.8,1.9L91.4,197.8z"/>
			<path fill="#EAAA56" d="M99.3,196.4l-8-2.2c0,0-3.4,1.5-5.7,7.7c-2.2,6.2-1.1,12.6-1.1,12.6l7.1,2.9L99.3,196.4z"/>
			<path fill="#FFCC80" d="M96.6,197c-2.8,5.3-8.4,22.8-8.4,22.8s2.4,1.2,5.8,3c3.4,1.8,11.1-3.5,18.6,0.5
				c7.5,3.9,11.7,8.4,11.7,8.4l5.1-5c0,0-0.3-12-3.1-19.6c-2.9-7.6-7-11.7-7-11.7s-7.5,4.4-11.8,2.1c-4.3-2.2-5.4-5.4-5.4-5.4
				S99.3,191.7,96.6,197z"/>
			<path fill="#EAAA56" d="M129.3,225.2l-3.9,3.9c0,0-4.2-4.5-11.7-8.4c-7.5-3.9-15.2,1.3-18.6-0.5c-3.4-1.8-5.8-3-5.8-3
				s3.7-11.4,6.5-18.6c-2.9,6.5-7.7,21.2-7.7,21.2s2.4,1.2,5.8,3c3.4,1.8,11.1-3.5,18.6,0.5c7.5,3.9,11.7,8.4,11.7,8.4l5.1-5
				C129.4,226.7,129.4,226.1,129.3,225.2z"/>
			<path fill="#BC531E" d="M101.2,196.5c0,0-0.9,9.1,3.8,13.2c4.7,4.1,10.1,3.1,14.9,6.5c4.7,3.5,6.2,10.6,6.2,10.6
				s2.2-10.4-0.9-18.1c-3.1-7.7-6.7-10.6-6.7-10.6s-1.7,2.3-7.9,2.6C104.3,201,101.2,196.5,101.2,196.5z"/>
			<path fill="#8D3C0D" d="M126.6,222.2c-0.4-2.2-1.7-7.2-5-10.2c-4.4-4-9.8-3.5-14.1-8.1c-1.1-1.2-1.8-2.6-2.2-4.1
				c-2.7-1.3-4.1-3.3-4.1-3.3s-0.9,9.1,3.8,13.2c4.7,4.1,10.1,3.1,14.9,6.5c4.7,3.5,6.2,10.6,6.2,10.6S126.4,225,126.6,222.2z"/>
			<path fill="#FFF4A1" d="M101.2,196.5c0,1.8,0.2,3.6,0.6,5.3c0.3,1.7,0.9,3.4,1.7,4.9c0.4,0.7,0.9,1.4,1.5,2
				c0.1,0.1,0.3,0.3,0.5,0.4l0.3,0.2l0.2,0.2c0.3,0.3,0.7,0.5,1.1,0.7c1.4,0.9,3.1,1.5,4.8,1.9c1.7,0.5,3.5,0.9,5.2,1.6
				c1.7,0.7,3.4,1.7,4.7,3.1c1.3,1.4,2.2,3,3,4.7c0.7,1.7,1.2,3.5,1.4,5.2c-0.6-1.7-1.3-3.3-2.2-4.9c-0.9-1.5-1.9-3-3.2-4.1
				c-1.2-1.1-2.7-2-4.3-2.6c-1.6-0.6-3.3-1-5.1-1.5c-1.7-0.5-3.5-1.2-5.1-2.2c-0.4-0.3-0.8-0.5-1.1-0.8l-0.3-0.2l-0.3-0.2
				c-0.2-0.2-0.4-0.3-0.5-0.5c-0.7-0.7-1.2-1.5-1.6-2.4c-0.8-1.7-1.2-3.6-1.4-5.4C100.8,200.1,100.9,198.3,101.2,196.5z"/>
			<path fill="#BC531E" d="M108.6,207.4c0,0,1.4-1.8,6-1c4.7,0.8,9.6,6.2,9.6,6.2l0.4,2.6c0,0-5.3-5.1-9.6-6.3
				C110.9,207.7,108.6,207.4,108.6,207.4z"/>
			<path fill="#EAAA56" d="M97,208.8c-0.3,0.5-1,0.8-1.5,0.5l0,0c-0.5-0.3-0.8-1-0.5-1.5l0,0c0.3-0.5,1-0.8,1.5-0.5l0,0
				C97.1,207.6,97.3,208.3,97,208.8L97,208.8z"/>
			<path fill="#EAAA56" d="M97.2,212c-0.1,0.2-0.4,0.3-0.7,0.2l0,0c-0.2-0.1-0.3-0.4-0.2-0.7l0,0c0.1-0.2,0.4-0.3,0.7-0.2l0,0
				C97.2,211.5,97.3,211.8,97.2,212L97.2,212z"/>
			<path fill="#EAAA56" d="M101.1,214c-0.4,0.8-1.3,1.2-2,0.8l0,0c-0.7-0.4-0.9-1.3-0.5-2.1l0,0c0.4-0.8,1.3-1.1,2-0.8l0,0
				C101.3,212.3,101.5,213.2,101.1,214L101.1,214z"/>
			<polygon fill="#FFCC80" points="85.9,199.3 91.1,201.4 85.8,200.4 			"/>
			<polygon fill="#FFCC80" points="83.3,206.4 91.2,208 83.5,208 			"/>
			<path fill="#FFF4A1" d="M126.2,207.1c-0.5-1-1.1-2-1.7-3c-0.6-1-1.2-1.9-1.8-2.9c-0.6-0.9-1.3-1.8-2-2.7
				c-0.7-0.9-1.4-1.7-2.2-2.5l1,0.1c-0.8,0.5-1.5,0.8-2.3,1.2c-0.8,0.4-1.6,0.7-2.4,0.9c-1.7,0.5-3.4,0.9-5.3,0.7
				c-0.9-0.1-1.9-0.4-2.6-0.9c-0.7-0.4-1.5-1-2.1-1.6c-1.3-1.2-2.4-2.6-2.8-4.3c0.4,0.7,0.9,1.4,1.5,2c0.6,0.6,1.2,1.1,1.9,1.6
				c0.7,0.5,1.4,0.8,2.1,1.2c0.7,0.3,1.4,0.5,2.2,0.5c1.5,0.1,3.1-0.3,4.6-0.8c1.5-0.5,3-1.2,4.4-1.9l0.6-0.3l0.4,0.4
				c0.4,0.5,0.8,0.9,1.2,1.4c0.4,0.5,0.7,0.9,1,1.4c0.7,1,1.2,2,1.8,3c0.5,1,1,2.1,1.4,3.2C125.6,204.9,126,206,126.2,207.1z"/>
		</g>
	</g>
	<circle fill="#B7D776" cx="201.4" cy="189.7" r="0.7"/>
	<circle fill="#B7D776" cx="202.7" cy="188" r="0.3"/>
	<g>
		<circle fill="#EDEA70" cx="219.7" cy="179.6" r="4.3"/>
		<path fill="#F59186" d="M198.7,193.2l4.2-5.5c0,0,3.4-3.8,3.8-3.8c0.4,0,9-3,9-3l16.3,2.3l5,3.8l2.7,5.3l-1.2,3.1l-8.5,2.5
			l-1.1,2.8l-20,1l0.8-3.5l-9.3-2.6L198.7,193.2z"/>
		<path fill="#B24256" d="M232.1,183.2l-16.3-2.3c0,0-8.6,3-9,3c-0.4,0-3.8,3.8-3.8,3.8l-4.2,5.5l1.9,2.4l2.8,0.8
			c0.7-1.2,2.6-3,7.5-4.5c7.8-2.3,11.7-1.9,11.7-1.9l-8.2,4c0,0,5.2-2.2,12.3-2c4.2,0.1,9,1.4,12.3,2.5l0.8-2.2l-2.7-5.3
			L232.1,183.2z"/>
		<path fill="#EDEA70" d="M241.1,192.6c-0.2-1.1,0.1-2.1-0.3-3.3c-0.4-1.3-2.8-3.3-2.8-3.3s-8.9-8.1-19.1-7.5
			c-10.2,0.6-19,10.1-19,10.1l-0.1,0.3c-0.4,0.4-3.8,4.7-1,6.5c1.9,1.2,7.2,2,8.8,2.7c1.6,0.7-0.3,2.7-0.3,2.7h3.3
			c0,0,0.4-1.1,0-2.7c-0.4-1.6-9.8-2.4-10.2-4.4c-0.1-0.7-0.1-1.3,0-1.8c0.9-0.5,2.1-0.9,2.6-1.5c0.9-0.9,0.2-3.3,1.7-4
			c1.3-0.7,4.1,0.6,5.7,0.1c1.5-0.4,2.4-2.8,4-3c1.6-0.2,3.5,1.7,5.2,1.7c1.7,0,3.6-2,5.3-1.8c1.7,0.2,2.6,2.6,4.2,3
			c1.7,0.4,4.4-0.9,5.8-0.2c1.6,0.7,1,3.1,2,4c0.3,0.3,0.7,0.5,1.1,0.7c0.3,0.6,0.7,1.5,0.4,2.7c-0.4,2-9.8,2.8-10.2,4.4
			c-0.4,1.6,0,2.7,0,2.7h3.3c0,0-1.9-2-0.3-2.7s6.8-1.4,8.8-2.7c1-0.6,1.2-1.6,1-2.5C241.1,192.8,241.2,192.7,241.1,192.6z"/>
		<path opacity="0.2" fill="#231F20" d="M242.2,207.9c0,7.1-9.5,12.8-21.2,12.8c-11.7,0-21.2-5.8-21.2-12.8
			C199.8,200.8,242.2,200.8,242.2,207.9z"/>
		<path fill="#EDEA70" d="M242.2,204.6c0,7.1-9.5,12.8-21.2,12.8c-11.7,0-21.2-5.8-21.2-12.8C199.8,197.5,242.2,197.5,242.2,204.6z"
			/>
		<path fill="#B7D776" d="M221,215.7c-11,0-20.1-5.1-21.1-11.6c-0.1,0.2-0.1,0.4-0.1,0.6c0,7.1,9.5,12.8,21.2,12.8
			c11.7,0,21.2-5.8,21.2-12.8c0-0.2,0-0.4-0.1-0.6C241.1,210.6,232,215.7,221,215.7z"/>
		<path fill="#F9BAAC" d="M240.8,203.6c-0.2,4.8-9.3,9.2-19.4,9.2c-10.1,0-20.1-4.1-20.1-8.9C201.2,199,240.9,200.2,240.8,203.6z"/>
		<path fill="#F59186" d="M201.2,203.9c0,0,0,0.1,0,0.1c3.1,7,10.9,10,19.9,10c9,0,18-4.9,19.6-10.2c0-0.1,0-0.1,0-0.2
			c0-1.7-8-2.9-8.9-3c-5.2-0.8-4.2-3.5-12.7-3.5c-3,0-9.6,3.7-10.1,3.8C204.9,201.4,201.2,202.4,201.2,203.9z"/>
		<path fill="#B24256" d="M208.9,207.6c0,0,2.9-2.9,10.6-3.9c7.7-0.9,11.5,2,11.5,2s-3.6-1.2-10.5-0.5
			C213.6,205.8,208.9,207.6,208.9,207.6z"/>
		<path fill="#C35662" d="M216.1,204c0,0,1.7-1.2,5.3-1c3.7,0.2,5.1,1.9,5.1,1.9s-1.6-0.9-4.8-1.1C218.5,203.5,216.1,204,216.1,204z
			"/>
		<path fill="#B24256" d="M207.4,204.8c0,0,0.9-1.8,4.2-3.4c3.3-1.6,5.4-0.8,5.4-0.8s-1.8-0.1-4.8,1.3
			C209.3,203.3,207.4,204.8,207.4,204.8z"/>
		<path fill="#B24256" d="M222.7,200.4c0,0,1.9-0.7,5.4,0.5c3.5,1.2,4.4,3.2,4.4,3.2s-1.2-1.3-4.3-2.4
			C225.1,200.7,222.7,200.4,222.7,200.4z"/>
		<path fill="#EDEA70" d="M241.5,203.8c0,1.2-2.5,0-3.5,1.1c-0.9,0.9-0.2,3.3-1.7,4c-1.3,0.7-4.1-0.6-5.7-0.1c-1.5,0.4-2.4,2.8-4,3
			c-1.6,0.2-3.5-1.7-5.2-1.7c-1.7,0-3.6,2-5.3,1.8c-1.7-0.2-2.6-2.6-4.2-3c-1.7-0.4-4.4,0.9-5.8,0.2c-1.6-0.7-1-3.1-2-4
			c-1.1-1.1-3.3-0.3-3.3-1.5l2.3,5.8c0,0,8.9,6.1,19.1,5.5c10.2-0.6,19-8.1,19-8.1L241.5,203.8z"/>
		<circle fill="#FFFAF1" cx="219.7" cy="179.6" r="3.1"/>
		<circle fill="#21110A" cx="219.6" cy="181" r="1.2"/>
		<path fill="#EDEA70" d="M216,178.5c0,0,1.2-0.8,3.2-0.8c2,0,4.4,1.5,4.4,1.5l-1.4-2.8l-2.9-0.7l-2.3,1L216,178.5z"/>
		
			<ellipse transform="matrix(0.3079 -0.9514 0.9514 0.3079 -13.6196 344.712)" fill="#EDEA70" cx="230.1" cy="181.7" rx="4.3" ry="4.3"/>
		
			<ellipse transform="matrix(0.308 -0.9514 0.9514 0.308 -13.6372 344.6858)" fill="#FFFAF1" cx="230.1" cy="181.7" rx="3.1" ry="3.1"/>
		
			<ellipse transform="matrix(0.3081 -0.9513 0.9513 0.3081 -15.2545 345.1262)" fill="#21110A" cx="229.6" cy="183.1" rx="1.2" ry="1.2"/>
		<path fill="#EDEA70" d="M227,179.5c0,0,1.4-0.4,3.2,0.2c1.9,0.6,3.7,2.8,3.7,2.8l-0.5-3.1l-2.5-1.6l-2.5,0.2L227,179.5z"/>
		
			<ellipse transform="matrix(0.8752 -0.4838 0.4838 0.8752 -62.0267 123.8747)" fill="#EDEA70" cx="209" cy="182.1" rx="4.3" ry="4.3"/>
		
			<ellipse transform="matrix(0.8752 -0.4837 0.4837 0.8752 -62.019 123.8385)" fill="#FFFAF1" cx="209" cy="182.1" rx="3.1" ry="3.1"/>
		
			<ellipse transform="matrix(0.8751 -0.4839 0.4839 0.8751 -62.5599 124.3533)" fill="#21110A" cx="209.7" cy="183.4" rx="1.2" ry="1.2"/>
		<path fill="#EDEA70" d="M205.3,182.9c0,0,0.7-1.3,2.4-2.2c1.7-1,4.6-0.8,4.6-0.8l-2.5-1.7l-2.9,0.8l-1.5,2L205.3,182.9z"/>
		<circle fill="#B7D776" cx="209.4" cy="211.8" r="0.7"/>
		<circle fill="#B7D776" cx="210.9" cy="212.6" r="0.2"/>
		<circle fill="#B7D776" cx="231.3" cy="212.1" r="0.7"/>
		<circle fill="#B7D776" cx="229.4" cy="213.3" r="0.4"/>
		<circle fill="#B7D776" cx="233.5" cy="211.2" r="0.4"/>
		<circle fill="#B7D776" cx="238" cy="189.2" r="0.7"/>
		<circle fill="#B7D776" cx="237.2" cy="187.6" r="0.3"/>
		<circle fill="#B24256" cx="220.5" cy="201.2" r="7.7"/>
		<circle fill="#E0EED0" cx="220.5" cy="200.2" r="7.7"/>
		<path fill="#98D5CE" d="M219.5,197.1c3.6,0,6.6,2.9,6.7,6.5c0.6-1,1-2.3,1-3.6c0-3.7-3-6.7-6.7-6.7c-3.7,0-6.7,3-6.7,6.7
			c0,0.1,0,0.2,0,0.2C215,198.3,217.1,197.1,219.5,197.1z"/>
		<circle fill="#98D5CE" cx="222.5" cy="198.2" r="2.1"/>
		<circle fill="#98D5CE" cx="219.5" cy="199.9" r="0.9"/>
		<circle fill="#FDF9D1" cx="221" cy="204.5" r="1.8"/>
		<circle fill="#007C96" cx="209.1" cy="183.7" r="0.5"/>
		<circle fill="#007C96" cx="219.1" cy="181.1" r="0.5"/>
		<circle fill="#007C96" cx="229.2" cy="183.1" r="0.5"/>
	</g>
	<g>
		<path fill="#D4C78E" d="M171.9,217.5c-0.7-0.2,2.3-8.7-7.2-13.9c-0.7-0.4-1.5-0.8-2.2-1.1c-0.2,0.3-0.4,0.5-0.6,0.8
			c-0.8-0.8-1.8-1.7-3.1-2.4c-0.2-0.1-0.4-0.2-0.6-0.3c-0.4-0.3-1.4-1-2.6-0.5c-0.3,0.1-0.6,0.3-0.9,0.6c0,0-0.1-0.1-0.1-0.1
			c-5.1-2.7-11.1-2.1-11.1-2.1s-0.3,5.2,1.7,8.6c-0.3,0.6-0.3,1.2-0.2,1.6c0,0,0,0,0,0c0,0,0,0,0,0c0,0.2,0.1,0.2,0.1,0.2l0.1,0
			c0.5,1,1,1.9,1.7,2.7c-0.9,1-0.5,2.4-0.5,2.4c0.8,1.8,1.7,3.5,3.1,4.7c3.2,3,8.3,3.9,11.1,4C169.5,223.1,172.6,217.7,171.9,217.5z
			"/>
		<path fill="#CD69A9" d="M147,212.6c0,0-0.5-1.7,0.8-2.7c1.3-0.9,4.6-2,4.6-2l1.1,5L147,212.6z"/>
		<path fill="#CD69A9" d="M145.8,207.5c0,0-0.5-1.7,0.8-2.7c1.3-0.9,4.6-2,4.6-2l1.1,5L145.8,207.5z"/>
		<path fill="#CD69A9" d="M164.1,201.6c0,0-1.3-1.3-2.7-0.6c-1.5,0.7-4,3-4,3l3.8,3.4L164.1,201.6z"/>
		<path fill="#CD69A9" d="M159.1,199.2c0,0-1.3-1.3-2.7-0.6c-1.5,0.7-4,3-4,3l3.8,3.4L159.1,199.2z"/>
		<path fill="#CF94C2" d="M144.2,197c0,0-0.4,7.1,2.9,10.2c3.2,3.1,3.6,2.5,5.1,2.5c4.9,0.1,7.3-3.1,7-3.2c-0.4-0.1,1.2-4.6-3.9-7.3
			C150.2,196.4,144.2,197,144.2,197z"/>
		<path fill="#D0C3E0" d="M151.3,207.3c-0.6-0.6-1.4-1.4-2-2.2c-2.1-2.5-3-5.4-3-5.4s-0.6,2.5,0.9,5.5c0.7,1.6,1.6,2.7,2.2,3.4
			C149.9,208.3,150.6,207.9,151.3,207.3z"/>
		<path fill="#D0C3E0" d="M155.4,204.9c-0.6-0.7-1.2-1.5-2-2.2c-2.3-2.3-5-3.5-5-3.5s2.5-0.3,5.4,1.4c1.5,0.9,2.5,1.8,3.2,2.5
			C156.5,203.7,156,204.3,155.4,204.9z"/>
		<path fill="#CD69A9" d="M164.9,209.7c-0.5-0.2,1.7-6.5-5.4-10.3c-0.5-0.3-1.1-0.6-1.7-0.8c-3,4.2-7.2,7.8-12.2,8.6
			c0.6,1.3,1.3,2.5,2.3,3.5c4.5,4.4,5.1,3.4,7.2,3.5C162,214.4,165.5,209.9,164.9,209.7z"/>
		<path fill="#CF94C2" d="M172.7,216c-0.7-0.2,2.3-8.7-7.2-13.9c-0.7-0.4-1.5-0.8-2.2-1.1c-4,5.7-9.5,10.6-16.2,11.7
			c0.8,1.8,1.7,3.5,3.1,4.7c3.2,3,8.3,3.9,11.1,4C170.2,221.6,173.4,216.2,172.7,216z"/>
		<g>
			<path fill="#D0C3E0" d="M167.9,218.9c0,0-8.9-1-11.5-3.6c-1.7-1.7-2.6-3.8-3-5c-1.1,0.6-2.2,1.1-3.4,1.5c0.5,1,1.6,2.5,4.3,4.3
				C159.6,219.7,167.9,218.9,167.9,218.9z"/>
			<path fill="#D0C3E0" d="M156,209.1c3.5,1.1,12.2,6.1,12.2,6.1s-5.1-4.9-10.2-8.2c-0.8,0.7-1.6,1.4-2.4,2
				C155.7,209,155.9,209,156,209.1z"/>
			<path fill="#D0C3E0" d="M161.6,203.1c-0.5,0.6-0.9,1.1-1.4,1.6c0.3,0,0.6,0,0.9,0.1c3.6,0.5,9.8,6.9,9.8,6.9
				S167.1,205.6,161.6,203.1z"/>
		</g>
	</g>
	<circle fill="#D4C78E" cx="245.8" cy="193.9" r="0.9"/>
	<circle fill="#D4C78E" cx="249.7" cy="199.3" r="1.7"/>
	<circle fill="#D4C78E" cx="253.2" cy="194.7" r="0.5"/>
	<circle fill="#D4C78E" cx="186.3" cy="183.7" r="0.5"/>
	<circle fill="#D4C78E" cx="189.6" cy="185.9" r="1.1"/>
	<circle fill="#D4C78E" cx="44.3" cy="208.1" r="0.7"/>
	<circle fill="#D4C78E" cx="47.5" cy="214.5" r="0.7"/>
	<circle fill="#D4C78E" cx="56.5" cy="208.8" r="0.3"/>
	<circle fill="#D4C78E" cx="54.6" cy="212.7" r="1.2"/>
	<circle fill="#D4C78E" cx="61.2" cy="212.2" r="0.4"/>
</g>
<g id="Keyboard">
</g>
<g id="Header">
</g>
<g id="Header_Buttons">
</g>
<g id="Progress_Indicator_1_">
</g>
<g id="Title">
</g>
<g id="Problem_Screen">
</g>
<g id="Isadora_Screenshot" display="none">
</g>
</svg>
