<?xml version="1.0" encoding="utf-8"?>
<!-- Generator: Adobe Illustrator 19.2.0, SVG Export Plug-In . SVG Version: 6.00 Build 0)  -->
<!DOCTYPE svg PUBLIC "-//W3C//DTD SVG 1.1//EN" "http://www.w3.org/Graphics/SVG/1.1/DTD/svg11.dtd">
<svg version="1.1" xmlns="http://www.w3.org/2000/svg" xmlns:xlink="http://www.w3.org/1999/xlink" x="0px" y="0px"
	 viewBox="0 0 75 60" enable-background="new 0 0 75 60" xml:space="preserve" width="75" height="60" preserveAspectRatio="none">
<g id="BG">
</g>
<g id="Coral">
</g>
<g id="Sand_BG">
</g>
<g id="Right_BG_Fish">
	<path fill="#1658A4" d="M42.6,20.9c-2.4-2.4-6.1-7.7-13.3-7.7c-0.1,0-0.1,0-0.2,0c-0.8-1.2-2.4-3-5-4.4c-4.2-2.2-9.5-2.7-9.5-2.7
		s1.5,3.6,5.4,5.8c1.5,0.9,3.4,1.5,5.1,1.8c-6.2,1.3-11.8,4.9-14.2,6.7L4,14.9c0,0-0.8,3.9,1,5.4c0.7,0.6,2.1,1,3.4,1.2
		c-1.5,0.4-3,1-3.8,1.8c-1.6,1.8-0.4,5.5-0.4,5.5l6.3-6.6c0.7,0.4,1.8,1,3,1.6l-0.8,1.5c0,0,1.5,1.1,4.5,1.6c1.2,0.2,2.3,0,3.3-0.3
		c1.8,0.6,3.8,1,5.8,1.3c-1.6,0.6-4,1.7-4.9,3.3c-1.3,2.4-1.9,7.3-1.9,7.3s5-2.7,6.9-5.6c1.4-2,1.5-3.9,1.4-4.9
		c0.6,0,1.3,0.1,1.9,0.1c10,0,16-6.6,16-6.6L42.6,20.9z"/>
	<path fill="#0B386C" d="M34.4,20c-1,0-1.8-1.1-1.9-2.5c0,0.2,0,0.4,0,0.6c0,1.7,0.9,3.1,2,3.1c1.1,0,2-1.4,2-3.1c0-0.2,0-0.4,0-0.6
		C36.2,18.9,35.4,20,34.4,20z"/>
	<path fill="#1658A4" d="M69.3,41.4c-1.9-1.9-4.8-6.1-10.6-6.1c-0.1,0-0.1,0-0.2,0c-0.6-0.9-1.9-2.4-4-3.5c-3.3-1.8-7.6-2.2-7.6-2.2
		s1.2,2.8,4.3,4.6c1.2,0.7,2.7,1.2,4.1,1.5c-4.9,1-9.4,3.9-11.4,5.3l-5.4-4.4c0,0-0.6,3.1,0.8,4.3c0.6,0.5,1.6,0.8,2.7,1
		c-1.2,0.3-2.4,0.8-3,1.4c-1.3,1.4-0.3,4.4-0.3,4.4l5-5.2c0.6,0.3,1.4,0.8,2.4,1.3l-0.7,1.2c0,0,1.2,0.9,3.6,1.3
		c0.9,0.2,1.9,0,2.7-0.3c1.5,0.5,3,0.8,4.6,1c-1.3,0.5-3.2,1.4-3.9,2.6c-1.1,1.9-1.5,5.8-1.5,5.8s4-2.2,5.5-4.5
		c1.1-1.6,1.2-3.1,1.1-3.9c0.5,0,1,0.1,1.5,0.1c8,0,12.8-5.3,12.8-5.3L69.3,41.4z"/>
	<path fill="#0B386C" d="M62.8,40.7c-0.8,0-1.4-0.9-1.6-2c0,0.1,0,0.3,0,0.4c0,1.4,0.7,2.5,1.6,2.5c0.9,0,1.6-1.1,1.6-2.5
		c0-0.2,0-0.3,0-0.4C64.2,39.8,63.5,40.7,62.8,40.7z"/>
</g>
<g id="Left_BG_Fish">
</g>
<g id="Left_Orange_and_Purple_Fish">
</g>
<g id="Starfish">
</g>
<g id="White_Frame_Drop_Shadow">
</g>
<g id="White_Frame_BG">
</g>
<g id="Submit_Button_1_">
</g>
<g id="Left_Tool_Bar_Tab">
</g>
<g id="Right_Info_Tab">
</g>
<g id="Top_Tab">
</g>
<g id="Left_Tools">
</g>
<g id="Orange_Crab">
</g>
<g id="Anchor">
</g>
<g id="Treasure_Chest">
</g>
<g id="Keyboard">
</g>
<g id="Header">
</g>
<g id="Header_Buttons">
</g>
<g id="Progress_Indicator_1_">
</g>
<g id="Title">
</g>
<g id="Problem_Screen">
</g>
<g id="Isadora_Screenshot" display="none">
</g>
</svg>
