<?xml version="1.0" encoding="utf-8"?>
<!-- Generator: Adobe Illustrator 19.2.0, SVG Export Plug-In . SVG Version: 6.00 Build 0)  -->
<!DOCTYPE svg PUBLIC "-//W3C//DTD SVG 1.1//EN" "http://www.w3.org/Graphics/SVG/1.1/DTD/svg11.dtd">
<svg version="1.1" xmlns="http://www.w3.org/2000/svg" xmlns:xlink="http://www.w3.org/1999/xlink" x="0px" y="0px"
	 viewBox="0 0 70 64" enable-background="new 0 0 70 64" xml:space="preserve" width="70" height="64" preserveAspectRatio="none">
<g id="BG">
</g>
<g id="Coral">
</g>
<g id="Sand_BG">
</g>
<g id="Right_BG_Fish">
</g>
<g id="Left_BG_Fish">
</g>
<g id="Left_Orange_and_Purple_Fish">
</g>
<g id="Starfish">
</g>
<g id="White_Frame_Drop_Shadow">
</g>
<g id="White_Frame_BG">
</g>
<g id="Submit_Button_1_">
</g>
<g id="Left_Tool_Bar_Tab">
</g>
<g id="Right_Info_Tab">
</g>
<g id="Top_Tab">
</g>
<g id="Left_Tools">
</g>
<g id="Orange_Crab">
	<g>
		<path opacity="0.2" fill="#231F20" d="M63.9,48.5l-4.5-6.4l-5.9,5.2c-4-1.7-10.5-2.8-17.9-2.8c-4.9,0-9.4,0.5-13,1.3l-10.3-3.5
			l-4.9,6.1l5.3-3.2l4,2.6c-1.9,1-3.1,2.2-3.1,3.4c0,1.6,1.9,3.1,5,4.2c0,0.2-0.1,0.4-0.1,0.6c0,4,7.8,7.2,17.3,7.2
			c9.6,0,17.3-3.2,17.3-7.2c0-0.3,0-0.5-0.1-0.8c2.8-1.1,4.4-2.5,4.4-4c0-0.6-0.3-1.3-0.9-1.8l2.4-3.5L63.9,48.5z"/>
		<g>
			<g>
				<circle fill="#BC531E" cx="27.7" cy="7.9" r="6.2"/>
				<path fill="#BC531E" d="M24,10.6c0,0-2,1.7-1.1,8.7c1,7,5.2,12.1,5.2,12.1l1.5-0.2c0,0-4.7-5.3-4-10.5c0.7-5.1,5.7-8.4,5.7-8.4
					L24,10.6z"/>
				<circle fill="#BC531E" cx="43.6" cy="7.9" r="6.2"/>
				<path fill="#BC531E" d="M47.4,10.6c0,0,2,1.7,1.1,8.7c-1,7-5.2,12.1-5.2,12.1l-1.5-0.2c0,0,4.4-5.6,3.8-10.7
					c-0.7-5.1-5.4-8.1-5.4-8.1L47.4,10.6z"/>
				<circle fill="#FFEB63" cx="27.6" cy="7.6" r="4.3"/>
				<circle fill="#FFEB63" cx="43.7" cy="7.6" r="4.3"/>
				<ellipse fill="#21110A" cx="29" cy="7.6" rx="2" ry="2.4"/>
				<ellipse fill="#21110A" cx="42.1" cy="7.6" rx="2" ry="2.4"/>
				<circle fill="#00667F" cx="41.1" cy="7.6" r="1.1"/>
				<circle fill="#00667F" cx="28" cy="7.6" r="1.1"/>
				<polygon fill="#BC531E" points="22.3,30.9 12.9,25.8 1.8,36.6 7.2,48.5 6.7,40.2 14.2,30.2 21.2,32.2 				"/>
				<polygon fill="#BC531E" points="23.7,31.5 19.6,20.2 5.3,19.3 2.5,32.3 8,22.9 18.1,24.5 22.1,31.6 				"/>
				<polygon fill="#BC531E" points="50.1,30.9 58.7,25.8 68.8,36.6 63.9,48.5 64.4,40.2 57.5,30.2 51.1,32.2 				"/>
				<polygon fill="#BC531E" points="48.8,31.5 52.5,20.2 65.6,19.3 68.1,32.3 63.1,22.9 53.9,24.5 50.2,31.6 				"/>
				<path fill="#ED6321" d="M57.5,34.9c0,0-9.3,7.9-21.1,7.9c-11.7,0-21.4-7.9-21.4-7.9s9.5-14.1,21.2-14.1
					C48,20.8,57.5,34.9,57.5,34.9z"/>
				<path fill="#BC531E" d="M57.5,34.9c0,0-9.3,7.9-21.1,7.9c-11.7,0-21.4-7.9-21.4-7.9s7.4,2.5,21.5,2.5
					C50.8,37.4,57.5,34.9,57.5,34.9z"/>
				<path fill="#21110A" d="M36,27.4c-2.1,0-3.8-1.1-4.1-2.6c0,0.2-0.1,0.3-0.1,0.5c0,1.7,1.9,3.2,4.2,3.2c2.3,0,4.2-1.4,4.2-3.2
					c0-0.2,0-0.3-0.1-0.5C39.8,26.2,38.1,27.4,36,27.4z"/>
				<ellipse fill="#BC531E" cx="27.7" cy="10.8" rx="3.7" ry="1.9"/>
				<ellipse fill="#BC531E" cx="43.4" cy="10.8" rx="3.7" ry="1.9"/>
				<polygon fill="#ED6321" points="20.1,34.6 10.3,37.9 14.4,55.6 15.1,43.1 13.7,41 17.3,41.1 20.8,35.4 				"/>
				<polygon fill="#ED6321" points="49.1,34.6 58.9,37.9 54.8,55.6 54.1,43.1 55.5,41 51.9,41.1 48.4,35.4 				"/>
				<polygon fill="#ED6321" points="27,35.2 21.5,43.3 26.8,45.7 28.7,35.9 				"/>
				<path fill="#ED6321" d="M22.7,41.4c0,0-5.5,3.1-4.3,10.1c1.2,6.9,11.5,6.7,11.5,6.7s-5.7-4.3-6-7.4c-0.2-3.1,0.5-4.8,0.5-4.8
					l7.7,13.7c0,0,2.9-4.6,2.2-9.6c-0.7-5-9.6-8.1-9.6-8.1L22.7,41.4z"/>
				<polygon fill="#ED6321" points="43.5,35.2 49,43.3 43.8,45.7 41.8,35.9 				"/>
				<path fill="#ED6321" d="M47.8,41.4c0,0,5.5,3.1,4.3,10.1c-1.2,6.9-11.5,6.7-11.5,6.7s5.8-4.3,6-7.4c0.2-3.1-0.5-4.8-0.5-4.8
					l-7.7,13.7c0,0-2.9-4.6-2.2-9.6c0.7-5,9.6-8.1,9.6-8.1L47.8,41.4z"/>
			</g>
			<circle fill="#BC531E" cx="22.7" cy="31.1" r="1.1"/>
			<circle fill="#BC531E" cx="24.9" cy="33.3" r="0.5"/>
			<circle fill="#BC531E" cx="45.8" cy="29.4" r="1.8"/>
			<circle fill="#BC531E" cx="43.9" cy="25.4" r="0.7"/>
			<circle fill="#BC531E" cx="49.6" cy="31.3" r="0.6"/>
			<circle fill="#BC531E" cx="26.9" cy="26.4" r="1"/>
		</g>
	</g>
</g>
<g id="Anchor">
</g>
<g id="Treasure_Chest">
</g>
<g id="Keyboard">
</g>
<g id="Header">
</g>
<g id="Header_Buttons">
</g>
<g id="Progress_Indicator_1_">
</g>
<g id="Title">
</g>
<g id="Problem_Screen">
</g>
<g id="Isadora_Screenshot" display="none">
</g>
</svg>
